<svg id="Layer_1" data-name="Layer 1" xmlns="http://www.w3.org/2000/svg" width="670.51" height="140.31" viewBox="0 0 670.51 140.31"><defs><style>.cls-1{fill:#2a2e3d;}.cls-2{fill:#c23669;}</style></defs><path class="cls-1" d="M414.24.07q14.83,0,15.44,15.24l4.88,125H394.93L390.66,33h-3.05l-13.82,71.54q-2,13.41-16.66,13.41H334.36q-14.43,0-16.86-13.41L303.47,33h-3.05L297,140.31H257.34l4.87-125Q262.83.07,277.66.07h38q14.22,0,16.66,13.62l10.16,55.69c.54,3.38,1,6.84,1.32,10.36s.65,7.05.92,10.57h1.83q.62-5.28,1.12-10.57c.33-3.52.77-7,1.32-10.36l9.55-55.69Q361,.07,375.42.07Z"/><path class="cls-2" d="M514.92,140.31h43.37L535,101.75A37.82,37.82,0,0,0,529.56,94a24,24,0,0,0-5.44-4.89V88.4A43.45,43.45,0,0,0,529.56,84,26.79,26.79,0,0,0,535,77.11l19.71-30.84H511.54L493.65,77.49h-5.38c.2-1.23.39-2.49.55-3.76a119.47,119.47,0,0,0,.94-14.67V.07H450.33V140.31h39.43v-26.9a74.66,74.66,0,0,0-1.22-12.5c-.08-.42-.15-.82-.23-1.23h5.23Z"/><path class="cls-2" d="M570.49,35.07h17.8q12.19,0,12.2-12.4V12.47q0-12.39-12.2-12.4h-17.8q-12.21,0-12.2,12.4v10.2Q558.29,35.08,570.49,35.07Z"/><path class="cls-2" d="M670.51,69.3v-23H648.37v-24H609.76l0,24.09-51.32-.11v94.06h38.25V69.24l13.11.06.09,45.39q0,12.07,7.87,18.85T639,140.31c2.93,0,6.31-.19,10.15-.55s7.66-.89,11.44-1.56a43.76,43.76,0,0,0,9.52-2.65L665.94,111h-9.7q-4.22,0-6-1.56t-1.83-5V69.3Z"/><path class="cls-1" d="M111.59,97.84Q110,89.43,106,84.91a23.89,23.89,0,0,0-8.62-6.41A31.1,31.1,0,0,0,89,76.2V75q10.81-1.2,16.93-5.81a24.67,24.67,0,0,0,8.61-11.72A45.81,45.81,0,0,0,117,42.14q0-16.23-6.11-25.34T92,3.88Q79.13.07,58.7.07q-13.83,0-23.54.1T17.33.67c-2.35.12-4.79.28-7.28.47L40.44,23.78A25.2,25.2,0,1,1,29.67,44.44a25.4,25.4,0,0,1,1-7.08L0,14.5V140.31H42.67V89.68q6.06,0,13.42.14,5.61,0,8.12,1.81t3.7,7.61l9,41.07h45.48Z"/><circle class="cls-2" cx="54.87" cy="44.44" r="10.46"/><path class="cls-1" d="M247.51,35.77q-3.37-13.64-10.87-21.44T217,3.26Q204.82,0,187.23,0q-17.39,0-31.32.59T128.94,2V138.33q12.84.79,27.07,1.38t31.22.6q17.6,0,29.75-3.26T236.64,126q7.5-7.8,10.87-21.44t3.36-34.39Q250.87,49.41,247.51,35.77ZM204,94.46q-1.58,8.51-5.53,11.66t-11.27,3.16q-8.16,0-15.41-.12V31h15.41q7.32,0,11.27,3.16T204,45.85q1.58,8.49,1.58,24.3T204,94.46Z"/></svg>