<?xml version="1.0" standalone="no"?>
<!DOCTYPE svg PUBLIC "-//W3C//DTD SVG 20010904//EN"
 "http://www.w3.org/TR/2001/REC-SVG-20010904/DTD/svg10.dtd">
<svg version="1.0" xmlns="http://www.w3.org/2000/svg"
 width="1974.000000pt" height="2272.000000pt" viewBox="0 0 1974.000000 2272.000000"
 preserveAspectRatio="xMidYMid meet">
<metadata>
Created by potrace 1.16, written by Peter Selinger 2001-2019
</metadata>
<g transform="translate(0.000000,2272.000000) scale(0.100000,-0.100000)"
fill="#000000" stroke="none">
<path fill="#28a6b8" d="M9790 22068 c-30 -4 -78 -17 -106 -30 -76 -35 -293 -161 -289 -168 2
-3 -4 -6 -13 -7 -20 -2 -162 -83 -162 -93 0 -3 -6 -7 -13 -7 -7 0 -25 -8 -41
-18 -26 -17 -27 -20 -10 -26 11 -3 22 -5 25 -3 4 2 9 -2 12 -9 3 -7 -3 -13
-13 -13 -10 0 -17 3 -14 7 2 4 -7 10 -20 13 -17 4 -42 -4 -83 -28 -32 -18 -95
-55 -140 -81 -46 -26 -83 -51 -83 -57 0 -5 -5 -6 -12 -2 -8 5 -9 2 -4 -11 5
-14 4 -16 -7 -7 -10 9 -22 6 -48 -11 -19 -13 -81 -49 -139 -81 -58 -33 -114
-67 -125 -77 -11 -10 -24 -19 -30 -21 -5 -2 -9 -9 -8 -17 1 -9 -2 -10 -10 -2
-7 7 -18 5 -39 -7 -15 -9 -28 -19 -28 -22 0 -4 -6 -7 -12 -7 -17 0 -331 -181
-340 -196 -4 -7 -8 -8 -8 -4 0 5 -13 0 -29 -9 -17 -10 -27 -22 -24 -27 3 -6 1
-7 -5 -3 -12 7 -52 -14 -52 -27 0 -5 8 -6 18 -2 13 5 14 4 5 -6 -10 -10 -16
-9 -29 2 -15 12 -17 12 -12 -1 3 -10 18 -15 43 -15 21 0 40 -6 43 -13 2 -7 11
-12 20 -13 12 0 13 -2 4 -6 -7 -3 -22 3 -33 13 -18 16 -19 16 -13 1 3 -10 1
-17 -6 -17 -6 0 -8 5 -4 11 5 8 -3 10 -24 7 -17 -2 -29 -1 -27 3 3 4 -2 12
-10 19 -14 12 -19 7 -16 -13 1 -5 -3 -6 -8 -2 -13 7 -71 -22 -71 -36 0 -6 -4
-8 -8 -5 -12 7 -63 -29 -55 -39 5 -4 3 -5 -3 -2 -11 6 -74 -19 -74 -29 0 -3 4
-3 8 0 5 3 9 -1 9 -9 0 -11 -4 -12 -13 -4 -10 8 -21 6 -44 -7 -16 -10 -30 -22
-30 -26 0 -4 -3 -7 -7 -6 -11 4 -233 -122 -233 -131 0 -4 -6 -8 -13 -8 -15 0
-209 -111 -218 -125 -3 -6 -8 -8 -10 -7 -7 5 -148 -75 -144 -82 2 -3 -1 -6 -8
-6 -10 0 -88 -44 -315 -175 -23 -14 -39 -28 -35 -33 5 -4 3 -5 -4 -1 -10 5
-79 -31 -173 -92 -14 -9 -29 -17 -35 -17 -5 -1 -9 -7 -7 -14 2 -8 -3 -11 -13
-8 -8 4 -15 2 -15 -4 0 -6 -4 -7 -10 -4 -5 3 -10 1 -10 -4 0 -6 -3 -10 -7 -9
-14 4 -143 -73 -138 -82 3 -5 0 -12 -6 -16 -8 -4 -9 -3 -5 4 11 18 1 15 -62
-20 -101 -57 -142 -85 -134 -93 4 -5 1 -5 -6 -1 -15 9 -375 -198 -364 -209 4
-5 1 -5 -5 -1 -21 12 -36 -4 -21 -22 12 -15 11 -16 -5 -3 -15 12 -20 12 -35
-1 -9 -9 -27 -19 -40 -23 -13 -4 -20 -11 -16 -18 4 -7 4 -9 -1 -5 -7 7 -85
-27 -85 -38 0 -3 4 -3 8 0 5 3 9 0 9 -7 0 -7 -8 -13 -18 -13 -10 0 -15 4 -13
8 7 11 -92 -44 -116 -65 -11 -9 -20 -14 -20 -12 0 7 -50 -20 -75 -40 -11 -9
-14 -13 -6 -9 9 5 12 3 7 -5 -4 -6 -12 -9 -17 -6 -13 9 -89 -36 -82 -48 3 -6
1 -7 -5 -3 -6 4 -21 2 -32 -4 -15 -8 -19 -18 -16 -37 3 -14 2 -22 -2 -18 -4 3
-7 11 -7 16 0 5 -3 9 -7 9 -5 0 -13 0 -19 0 -5 0 -7 -5 -3 -12 4 -7 3 -8 -4
-4 -6 4 -29 -5 -51 -19 -23 -14 -45 -25 -50 -25 -5 0 -13 -4 -16 -10 -4 -6 1
-7 12 -4 15 5 15 4 3 -4 -8 -6 -17 -9 -22 -6 -4 3 -32 -10 -63 -28 -86 -50
-84 -49 -193 -112 -59 -33 -99 -62 -95 -69 3 -6 1 -7 -5 -3 -15 9 -73 -24 -65
-38 4 -5 0 -7 -9 -4 -8 4 -20 3 -27 -1 -16 -11 -21 -44 -7 -53 7 -5 4 -8 -6
-8 -10 0 -18 -3 -18 -8 0 -4 -10 -13 -22 -21 l-23 -14 23 25 c12 14 24 35 27
47 4 23 4 23 -30 -3 -18 -14 -37 -26 -41 -26 -18 0 -361 -206 -357 -214 4 -5
0 -6 -7 -1 -8 5 -20 -1 -32 -16 -11 -13 -17 -18 -13 -11 5 10 -1 9 -24 -3 -19
-9 -31 -22 -29 -32 2 -9 -4 -18 -12 -20 -12 -4 -12 -3 -1 5 7 5 9 12 5 15 -5
3 -37 -11 -71 -31 -53 -31 -60 -38 -50 -51 10 -14 10 -14 -5 -3 -14 12 -24 10
-62 -13 -48 -28 -63 -44 -23 -25 21 11 21 10 3 -4 -10 -9 -23 -13 -27 -10 -10
6 -69 -23 -69 -35 0 -4 -6 -8 -12 -8 -14 0 -198 -103 -198 -110 0 -2 5 -1 12
3 7 4 8 3 4 -5 -4 -6 -13 -10 -20 -9 -10 3 -104 -48 -276 -148 -25 -15 -88
-51 -140 -81 -52 -30 -97 -58 -100 -61 -3 -4 -11 -8 -18 -10 -7 -1 -24 -10
-38 -19 -20 -13 -22 -18 -12 -31 12 -13 11 -14 -8 -2 -18 11 -25 10 -50 -7
-16 -11 -80 -48 -142 -82 -66 -37 -109 -67 -105 -73 3 -7 1 -8 -5 -4 -6 4 -48
-14 -94 -40 -45 -27 -76 -50 -70 -52 7 -2 9 -8 6 -14 -4 -7 -9 -6 -14 1 -3 7
-14 9 -23 5 -9 -3 -15 -10 -12 -14 3 -4 -3 -7 -13 -6 -9 0 -16 -5 -14 -12 1
-8 -2 -11 -7 -7 -13 8 -71 -22 -71 -37 0 -6 -3 -9 -6 -5 -10 9 -66 -22 -59
-33 4 -6 -1 -7 -11 -3 -13 5 -15 3 -9 -7 5 -8 4 -11 -3 -6 -15 9 -124 -53
-115 -66 3 -7 1 -8 -5 -4 -6 3 -63 -24 -127 -61 -94 -54 -113 -69 -99 -75 14
-6 12 -7 -8 -5 -16 3 -36 -2 -45 -9 -17 -13 -17 -14 2 -8 16 5 17 4 5 -4 -8
-6 -17 -9 -21 -6 -13 7 -59 -18 -52 -29 3 -6 1 -7 -4 -4 -11 7 -103 -40 -103
-52 0 -4 -6 -8 -12 -8 -19 -1 -368 -204 -368 -215 0 -5 -5 -6 -10 -3 -6 3 -10
1 -10 -5 0 -6 -4 -9 -8 -6 -5 3 -25 -6 -45 -19 -20 -14 -38 -25 -41 -25 -13 0
-176 -103 -176 -111 0 -6 -4 -8 -9 -5 -5 3 -19 -3 -32 -13 -13 -10 -34 -21
-47 -25 -12 -4 -34 -19 -47 -32 -14 -14 -25 -21 -25 -17 0 10 -90 -89 -90 -99
0 -5 1 -10 3 -13 1 -2 -5 -10 -14 -17 -29 -23 -50 -100 -60 -217 -13 -162 -8
-9886 6 -9887 6 0 22 -6 36 -12 63 -26 106 -32 140 -21 41 14 61 28 54 39 -3
5 0 12 6 16 7 4 9 3 5 -4 -12 -20 10 -21 43 -1 17 10 29 24 26 29 -3 5 1 7 9
4 8 -3 23 3 34 13 10 10 23 19 29 20 17 3 133 75 133 83 0 4 10 12 23 17 41
20 124 98 119 113 -3 8 -1 12 3 8 5 -4 14 -3 22 3 18 15 -2 40 -25 32 -14 -4
-14 -3 -3 5 12 9 12 13 2 26 -17 21 -7 21 14 0 11 -12 19 -13 29 -5 7 6 16 8
19 5 6 -6 25 33 32 66 2 8 8 28 14 43 8 20 11 1327 11 4615 0 2523 2 4595 3
4604 2 10 7 21 12 25 4 5 5 2 0 -6 -6 -11 -4 -13 9 -8 10 4 20 7 22 7 3 0 2 4
-1 10 -3 5 0 7 7 5 8 -3 23 3 33 13 11 10 24 18 29 18 14 0 176 98 176 107 0
5 -5 5 -10 2 -6 -4 -9 -1 -8 7 2 7 -4 12 -12 10 -13 -3 -13 -1 -1 10 11 10 14
10 18 0 3 -6 9 -10 14 -6 5 3 8 2 7 -3 -6 -18 16 -14 63 11 27 15 49 31 49 35
0 4 6 8 13 8 22 1 97 49 90 58 -5 4 -3 5 3 2 12 -7 262 134 276 155 4 7 8 9 8
5 0 -5 18 2 40 14 21 12 37 25 35 29 -2 3 4 6 14 7 22 2 332 181 348 201 7 9
13 13 13 9 0 -11 184 93 200 112 3 3 10 7 15 8 21 3 365 206 365 215 0 5 5 6
10 3 6 -3 10 -2 10 3 0 5 6 9 13 9 21 1 127 70 119 78 -4 5 -1 5 5 1 15 -8 56
17 46 28 -4 4 -1 5 7 2 8 -3 44 13 80 36 36 23 69 42 73 43 4 0 11 6 16 13 5
8 11 13 15 13 18 -3 26 1 51 27 16 15 25 21 20 13 -6 -10 3 -8 26 6 19 11 76
44 127 72 55 31 89 57 86 63 -4 7 -2 8 5 4 6 -4 51 16 102 46 50 29 106 61
125 71 21 10 32 22 28 29 -4 7 -3 8 4 4 7 -4 90 38 189 95 98 57 213 123 256
147 42 24 77 49 77 55 0 6 3 8 6 4 11 -10 65 23 58 35 -4 6 -3 8 4 4 9 -5 95
41 385 209 20 12 34 24 31 27 -3 3 1 5 8 4 15 -1 118 56 118 66 0 4 -8 5 -17
2 -15 -5 -15 -4 -3 4 9 7 18 8 26 1 16 -13 25 2 19 30 -5 25 -2 26 16 4 12
-14 12 -16 0 -8 -10 5 -12 4 -7 -4 6 -9 16 -7 39 7 18 11 58 34 89 51 47 26
55 35 45 46 -6 7 -15 11 -19 8 -4 -2 -5 3 -2 11 5 12 9 11 25 -5 16 -16 23
-17 45 -7 14 7 32 23 40 37 9 16 13 18 9 7 -5 -19 -5 -19 12 -4 10 9 22 17 26
17 14 0 312 174 325 190 8 9 10 10 7 3 -6 -11 -3 -11 13 -1 12 7 18 17 15 23
-3 5 -1 6 5 2 15 -9 73 24 65 37 -3 6 -1 7 5 3 12 -7 82 31 82 45 0 5 3 8 8 7
4 0 16 3 27 7 19 8 359 202 435 249 19 12 52 30 73 41 21 11 46 27 56 35 9 8
23 16 31 18 8 2 20 10 27 18 6 9 14 15 17 15 21 -3 26 0 20 11 -4 6 -3 8 4 4
12 -7 75 27 66 36 -3 3 3 5 13 5 10 -1 17 3 16 10 -2 8 4 10 14 6 12 -5 14 -3
8 7 -5 8 -4 11 3 7 13 -9 121 53 118 67 -2 6 -1 8 1 4 7 -13 18 -9 41 12 12
12 22 18 22 15 0 -3 14 2 32 11 30 16 31 17 13 30 -10 8 -14 14 -9 14 6 0 15
-5 21 -11 9 -9 18 -8 37 4 14 9 40 25 58 35 125 71 148 84 148 89 0 2 -5 1
-12 -3 -7 -4 -8 -3 -4 5 4 6 13 11 19 10 26 -3 38 2 31 13 -4 7 -3 8 4 4 18
-11 37 4 21 16 -11 7 -10 8 4 4 11 -4 46 10 90 36 40 22 92 52 117 66 25 15
47 30 48 34 2 4 9 8 15 8 22 0 157 86 150 95 -5 4 -3 5 4 2 6 -4 37 8 70 27
495 285 618 357 624 368 5 7 9 10 9 5 0 -12 60 22 60 34 0 6 -4 8 -9 4 -5 -3
-12 -1 -15 4 -7 10 20 9 30 -2 7 -6 64 19 64 29 0 3 -6 2 -12 -2 -8 -4 -9 -3
-5 2 5 5 16 9 25 9 9 0 16 6 14 13 -1 8 2 11 7 7 18 -10 73 25 67 42 -5 12 -4
13 7 5 10 -9 24 -5 58 16 24 15 56 34 72 41 20 11 24 17 15 24 -9 6 -8 7 4 3
21 -6 110 42 105 58 -2 6 -10 12 -18 12 -8 1 -21 2 -29 3 -13 1 -13 3 -1 10 9
6 22 6 31 1 11 -6 21 -5 27 1 8 8 13 7 18 -2 5 -8 4 -10 -3 -5 -7 4 -12 1 -12
-9 0 -14 6 -13 40 6 22 13 40 26 40 29 0 4 6 7 13 7 20 0 67 34 61 44 -3 5 1
6 9 3 17 -6 128 56 121 68 -3 5 -10 5 -16 2 -7 -4 -8 -2 -4 5 5 7 13 8 23 2
17 -9 83 23 83 41 0 5 5 6 10 3 6 -3 10 -1 10 5 0 6 4 9 8 6 12 -7 63 29 55
39 -5 4 -2 5 4 1 16 -9 216 107 206 119 -5 4 -3 5 3 2 14 -8 104 40 104 56 0
5 3 7 6 4 4 -3 15 -2 26 4 15 8 29 5 64 -16 24 -14 49 -23 56 -19 7 5 8 3 3
-6 -6 -10 -4 -12 9 -7 10 4 15 3 11 -3 -7 -11 49 -42 59 -33 3 4 6 1 6 -4 0
-16 90 -64 104 -56 6 3 8 2 4 -2 -9 -10 63 -56 74 -48 5 2 6 9 3 14 -4 5 2 6
11 2 11 -4 13 -8 6 -11 -7 -2 -12 -7 -12 -12 0 -4 78 -52 173 -106 94 -53 185
-106 201 -117 25 -17 32 -18 50 -7 19 12 20 11 8 -2 -10 -13 -8 -18 14 -33 15
-9 33 -18 40 -19 7 -1 21 -9 31 -17 39 -33 254 -149 265 -143 7 4 8 3 4 -4 -7
-12 27 -35 38 -25 3 3 6 0 6 -7 0 -10 5 -9 18 3 15 14 19 15 19 2 0 -8 -5 -11
-10 -8 -5 3 -8 0 -6 -6 3 -7 8 -12 12 -11 4 0 15 -6 24 -15 8 -9 22 -14 30
-11 8 3 12 2 9 -3 -5 -8 119 -88 146 -93 7 -2 18 -8 25 -15 28 -25 194 -113
204 -108 5 4 8 1 7 -5 -2 -6 20 -23 47 -39 28 -15 68 -38 90 -51 22 -12 46
-27 53 -32 8 -7 17 -6 30 3 15 12 16 12 5 -2 -11 -13 -6 -19 29 -39 26 -14 38
-18 34 -9 -5 8 -2 8 6 -2 22 -27 67 -51 82 -46 10 4 13 1 9 -9 -4 -12 0 -15
22 -14 3 1 12 -5 19 -13 8 -7 72 -46 142 -86 71 -40 136 -76 144 -81 141 -84
172 -100 182 -94 7 4 8 3 4 -4 -3 -6 3 -16 15 -22 17 -10 20 -9 14 2 -3 7 -1
6 7 -3 25 -30 66 -51 74 -38 4 8 3 9 -4 5 -17 -10 -15 -1 2 14 13 10 14 8 11
-12 -5 -25 -3 -26 77 -71 25 -14 63 -36 85 -50 67 -42 87 -51 77 -35 -4 7 5 1
21 -14 27 -27 37 -32 62 -29 6 1 15 -4 19 -10 4 -8 3 -9 -4 -5 -7 4 -12 5 -12
3 0 -6 106 -67 115 -67 4 0 3 5 -1 12 -4 7 -3 8 5 4 6 -4 9 -11 7 -15 -5 -7
88 -67 114 -73 7 -2 22 -11 32 -21 10 -10 23 -15 28 -12 6 4 10 2 10 -2 0 -14
109 -75 122 -67 7 4 8 3 4 -4 -10 -16 6 -15 24 1 12 10 12 9 2 -4 -11 -15 -6
-20 34 -43 26 -14 48 -26 50 -26 2 0 24 -13 50 -30 26 -16 51 -27 55 -24 5 3
9 1 9 -5 0 -10 170 -111 189 -111 6 0 11 -4 11 -10 0 -5 5 -10 11 -10 6 0 29
-13 52 -28 84 -57 174 -101 185 -90 7 7 10 5 9 -6 -3 -24 282 -187 305 -175
11 6 19 5 23 -1 4 -6 3 -9 -2 -8 -4 2 -9 -1 -10 -7 -2 -5 0 -10 5 -10 4 -1 29
-15 56 -33 36 -23 53 -29 62 -21 9 7 18 7 31 -1 16 -10 15 -10 -4 -5 -35 10
-27 -11 13 -34 40 -24 48 -26 38 -9 -5 7 -3 8 5 4 7 -5 10 -11 7 -14 -7 -6
115 -78 127 -74 4 1 7 -3 7 -9 0 -5 5 -7 10 -4 6 3 10 2 10 -3 0 -4 35 -28 78
-53 42 -24 101 -58 131 -76 30 -18 58 -30 62 -27 5 3 9 0 9 -6 0 -7 7 -9 16
-6 8 3 13 2 9 -3 -6 -11 90 -73 99 -64 3 4 6 2 6 -4 0 -13 49 -35 61 -27 5 3
8 1 7 -5 -2 -6 19 -24 47 -41 43 -25 52 -27 65 -15 10 9 20 11 30 5 13 -9 13
-10 0 -11 -8 -1 -18 -1 -22 0 -5 0 -8 -2 -8 -7 0 -8 11 -16 80 -54 25 -14 69
-39 97 -56 29 -17 59 -30 65 -28 7 1 9 1 5 -2 -5 -2 6 -13 24 -24 22 -13 35
-16 37 -9 2 6 8 11 14 11 6 0 6 -6 -2 -15 -10 -12 -9 -16 3 -21 9 -3 21 -3 27
1 6 4 9 1 8 -7 -2 -7 5 -12 14 -12 10 1 15 -2 13 -7 -3 -4 8 -15 25 -24 16 -8
30 -12 30 -8 0 5 4 3 8 -3 7 -12 56 -43 102 -67 14 -7 44 -24 67 -39 23 -15
48 -29 55 -30 7 -2 21 -11 32 -20 18 -17 38 -23 59 -19 5 1 5 -4 1 -10 -5 -9
-2 -10 9 -6 9 3 19 1 23 -5 4 -7 3 -8 -4 -4 -7 4 -12 5 -12 2 0 -3 13 -12 29
-20 22 -12 31 -12 40 -3 10 9 11 8 6 -4 -5 -12 6 -24 40 -43 26 -14 52 -23 58
-19 6 3 7 1 3 -5 -4 -7 -1 -12 9 -12 10 0 13 5 9 12 -4 7 -3 8 5 4 6 -4 9 -11
6 -16 -8 -13 53 -53 71 -46 8 3 12 2 9 -4 -7 -11 32 -33 45 -25 6 4 9 1 8 -6
-2 -7 2 -13 7 -14 6 0 24 -10 40 -21 17 -12 79 -49 139 -83 59 -34 117 -68
129 -76 15 -11 24 -12 34 -3 11 9 12 7 7 -7 -5 -13 -4 -16 4 -11 7 4 12 3 12
-2 0 -5 64 -46 141 -91 101 -58 148 -80 163 -76 14 4 17 3 8 -3 -10 -7 -7 -13
15 -27 15 -10 33 -18 40 -18 7 0 13 -3 13 -7 0 -13 59 -40 65 -30 3 5 12 10
18 9 9 0 9 -2 0 -6 -7 -2 -13 -8 -13 -13 0 -15 114 -74 140 -72 18 1 21 -1 11
-7 -11 -7 0 -16 40 -36 30 -15 73 -41 97 -57 23 -16 47 -26 54 -22 6 4 8 3 5
-3 -8 -13 17 -24 37 -17 8 3 17 1 21 -5 4 -7 -1 -9 -12 -5 -10 3 4 -8 31 -26
26 -17 55 -29 63 -26 8 3 11 2 8 -4 -8 -12 143 -100 161 -93 9 3 14 0 12 -8
-2 -8 4 -13 14 -13 10 1 16 -1 14 -5 -5 -8 252 -157 265 -153 5 1 9 -2 9 -7 0
-9 99 -68 122 -73 7 -2 20 -10 30 -19 10 -8 36 -25 59 -38 l41 -23 -12 23
c-12 23 -12 23 6 6 19 -17 19 -151 22 -4989 2 -4581 3 -4972 18 -4983 15 -11
15 -12 0 -12 -9 0 -16 5 -16 10 0 6 -11 0 -25 -13 -14 -13 -25 -20 -25 -17 0
4 -18 -4 -40 -18 -22 -14 -41 -25 -44 -25 -12 0 -115 -69 -109 -72 4 -3 3 -3
-4 -2 -12 3 -145 -70 -140 -77 1 -2 0 -3 -2 -2 -8 5 -101 -50 -101 -59 0 -5
-4 -7 -8 -4 -12 7 -63 -29 -55 -39 5 -4 3 -5 -4 -1 -7 4 -42 -11 -79 -34 -36
-22 -70 -40 -75 -40 -4 0 -13 -8 -18 -18 -6 -9 -11 -13 -11 -9 0 5 -17 -1 -37
-13 -56 -34 -89 -53 -182 -105 -63 -36 -80 -50 -70 -57 11 -8 10 -9 -4 -4 -23
7 -68 -14 -60 -28 3 -6 3 -8 -2 -4 -10 9 -85 -29 -85 -43 0 -6 -4 -8 -10 -4
-5 3 -18 -3 -30 -15 -11 -11 -20 -18 -20 -15 0 3 -14 -2 -31 -10 -17 -9 -28
-19 -25 -22 3 -3 14 0 23 8 16 13 17 12 4 -4 -8 -10 -21 -15 -28 -12 -8 2 -23
0 -35 -6 -19 -10 -19 -11 -1 -25 17 -14 16 -14 -5 -4 -19 10 -33 6 -87 -25
-36 -20 -65 -41 -65 -46 0 -6 -4 -8 -8 -5 -12 7 -433 -240 -424 -249 4 -5 1
-5 -5 -1 -15 8 -56 -17 -46 -28 4 -4 0 -4 -10 0 -11 4 -19 0 -23 -10 -3 -9 -9
-14 -14 -11 -4 2 -29 -10 -56 -27 -27 -18 -51 -33 -54 -33 -3 -1 -17 -7 -32
-15 -20 -10 -25 -16 -18 -25 8 -9 6 -14 -5 -18 -8 -4 -14 -2 -12 2 4 16 -18 9
-81 -26 -36 -20 -59 -39 -55 -45 3 -7 1 -8 -5 -4 -14 8 -52 -10 -52 -25 0 -6
4 -8 8 -5 12 7 9 -41 -2 -51 -5 -4 -6 -2 -2 5 6 10 -26 24 -60 25 -18 0 -153
-87 -147 -96 3 -5 1 -7 -5 -4 -15 10 -43 -3 -35 -16 3 -5 1 -7 -4 -4 -10 6
-103 -39 -103 -49 0 -3 4 -3 9 0 4 3 16 -3 25 -13 13 -14 14 -18 2 -18 -8 0
-14 5 -13 10 4 21 -39 14 -89 -14 -46 -27 -52 -33 -48 -57 3 -20 2 -23 -5 -12
-5 8 -7 18 -5 22 7 11 -1 10 -30 -3 -14 -7 -23 -15 -21 -19 2 -4 -1 -7 -8 -7
-13 0 -309 -167 -330 -186 -7 -7 -19 -13 -27 -15 -8 -2 -21 -11 -28 -20 -7 -9
-15 -16 -17 -14 -12 6 -26 1 -20 -8 3 -5 0 -8 -7 -5 -7 2 -22 -2 -33 -11 -20
-15 -20 -15 4 -35 13 -10 18 -19 12 -19 -6 0 -20 9 -31 20 -17 17 -20 17 -28
4 -5 -9 -12 -15 -15 -15 -18 3 -25 -1 -47 -22 -14 -12 -26 -21 -27 -19 -9 8
-23 0 -17 -10 4 -6 3 -8 -3 -5 -12 8 -173 -80 -173 -95 0 -5 -4 -7 -8 -4 -5 3
-24 -5 -43 -17 -19 -13 -51 -31 -71 -42 -20 -10 -34 -24 -31 -29 4 -6 3 -8 -2
-4 -4 4 -34 -7 -66 -24 -48 -26 -58 -36 -53 -52 5 -16 2 -18 -22 -13 -21 4
-46 -5 -99 -35 -38 -22 -77 -45 -85 -52 -8 -7 -30 -18 -47 -26 -18 -7 -33 -16
-33 -21 0 -5 -5 -9 -11 -9 -6 0 -36 -14 -66 -31 -43 -25 -52 -34 -42 -45 9
-12 16 -11 39 6 16 11 32 20 37 20 4 0 0 -5 -10 -11 -9 -6 -14 -15 -11 -21 4
-7 2 -8 -4 -4 -7 4 -18 4 -24 -1 -20 -12 -39 -12 -31 0 4 7 0 8 -11 4 -11 -5
-15 -3 -10 5 4 6 3 9 -2 6 -392 -225 -502 -292 -498 -303 5 -13 -10 -28 -34
-31 -6 -1 -10 2 -6 7 3 5 9 7 14 4 10 -6 25 13 17 21 -8 8 -67 -25 -67 -37 0
-6 -3 -8 -8 -5 -12 7 -123 -60 -115 -69 5 -4 3 -5 -3 -2 -6 4 -37 -9 -69 -28
-31 -19 -59 -35 -60 -35 -10 0 -125 -74 -125 -80 0 -3 -6 -7 -13 -7 -12 0
-327 -179 -337 -192 -3 -3 -10 -7 -16 -8 -7 -1 -36 -17 -65 -34 -30 -18 -70
-41 -89 -52 -177 -100 -215 -125 -172 -111 13 5 14 4 3 -4 -8 -6 -21 -8 -29
-4 -11 4 -13 1 -7 -8 5 -8 4 -11 -3 -6 -13 8 -312 -161 -312 -177 0 -6 -3 -8
-6 -4 -10 9 -66 -22 -59 -33 4 -6 -1 -7 -11 -3 -10 4 -15 2 -11 -3 3 -6 -2
-10 -12 -11 -10 -1 -48 -20 -84 -42 -36 -22 -84 -50 -107 -63 -24 -13 -50 -27
-59 -33 -9 -5 -46 -27 -84 -48 -37 -21 -67 -40 -67 -43 0 -3 5 -2 12 2 7 4 8
3 4 -4 -4 -6 -14 -8 -23 -5 -12 5 -14 3 -8 -7 5 -9 4 -11 -4 -6 -10 7 -105
-41 -134 -67 -7 -7 -17 -13 -23 -14 -17 -3 -138 -75 -145 -86 -4 -5 -17 -14
-30 -21 -13 -7 -23 -19 -23 -28 1 -9 -6 -15 -17 -14 -10 1 -48 -21 -84 -49
-94 -72 -198 -153 -215 -168 -8 -8 -29 -22 -47 -32 -18 -10 -30 -22 -27 -27 3
-4 0 -8 -5 -8 -6 0 -34 -16 -62 -36 -38 -28 -47 -39 -37 -46 10 -7 8 -8 -5 -4
-10 3 -25 -2 -36 -13 -10 -10 -32 -27 -50 -37 -17 -10 -31 -24 -31 -31 0 -6
-5 -15 -12 -19 -7 -5 -8 -3 -3 6 9 14 -56 -29 -67 -45 -4 -5 -2 -13 5 -18 8
-6 6 -7 -5 -3 -10 3 -20 1 -23 -5 -4 -5 -10 -7 -15 -4 -4 3 -10 -2 -14 -10 -3
-8 -13 -15 -22 -15 -10 0 -14 -5 -11 -14 4 -10 1 -13 -8 -10 -7 3 -28 -8 -46
-24 -22 -20 -27 -29 -16 -29 9 0 14 4 11 9 -3 4 3 5 12 1 16 -6 5 -17 -12 -13
-4 1 -11 -4 -15 -12 -7 -10 -9 -10 -9 0 0 6 -4 12 -9 12 -15 0 -136 -102 -135
-115 1 -6 -5 -12 -12 -12 -7 0 -10 5 -7 11 4 6 -1 5 -10 -3 -9 -7 -14 -18 -10
-24 3 -5 2 -7 -3 -4 -15 9 -138 -119 -129 -134 6 -8 4 -10 -4 -4 -13 8 -201
-170 -201 -191 0 -6 -11 -31 -24 -55 -29 -54 -39 -96 -26 -104 5 -3 10 -17 10
-31 0 -16 4 -23 11 -18 7 4 10 1 7 -7 -6 -15 19 -70 36 -81 6 -4 22 0 35 8 13
9 21 12 17 6 -3 -5 3 -12 14 -15 11 -3 20 -11 20 -18 0 -10 -3 -10 -12 -1 -14
14 -28 16 -28 3 0 -5 10 -13 23 -17 12 -4 39 -18 60 -31 21 -13 43 -21 49 -17
6 4 8 3 4 -4 -8 -14 28 -25 54 -17 11 4 17 11 14 17 -4 6 -2 8 4 4 15 -9 83
25 75 38 -3 6 -3 8 2 4 9 -9 105 39 105 52 0 6 4 9 8 7 16 -4 131 66 125 76
-3 6 -1 7 5 3 13 -8 105 42 98 53 -3 4 4 7 14 8 10 1 78 36 152 79 73 42 160
93 193 111 33 19 63 39 66 45 3 5 10 9 15 8 5 -1 10 3 12 9 2 6 -3 8 -11 5 -8
-3 -18 -1 -21 5 -4 6 -14 8 -24 5 -14 -5 -15 -4 -2 5 9 6 18 7 24 1 14 -14 28
-12 20 3 -4 6 2 3 14 -7 12 -11 22 -15 22 -9 0 5 6 10 13 10 12 0 307 169 317
181 3 4 11 8 18 10 7 1 45 22 85 45 40 24 165 97 279 163 113 65 204 123 201
128 -4 5 -1 6 5 2 15 -9 143 65 135 77 -3 6 -1 7 5 3 13 -8 48 12 51 29 2 6 5
12 8 15 4 3 3 -1 -1 -8 -11 -18 0 -15 50 14 24 14 42 30 39 34 -3 5 0 12 6 16
8 4 9 3 5 -4 -13 -21 5 -13 132 60 99 57 121 73 106 79 -14 6 -12 8 11 7 31
-1 39 2 225 112 63 37 172 100 243 140 70 40 127 77 127 82 0 5 5 6 10 3 6 -3
10 -1 10 5 0 6 4 9 8 6 5 -3 24 5 43 18 19 12 57 35 86 51 29 15 50 32 46 38
-3 6 -1 7 6 3 11 -7 129 57 143 78 5 7 8 7 8 1 0 -5 7 -1 15 9 8 11 15 17 15
13 0 -4 14 -1 30 8 17 9 30 19 30 24 0 4 6 8 13 8 22 1 97 49 90 58 -5 4 -3 5
4 1 14 -7 83 31 83 47 0 6 3 8 6 4 7 -6 64 19 64 29 0 3 -6 2 -12 -1 -7 -4 -4
0 6 9 10 8 23 13 27 10 11 -6 240 127 234 137 -3 4 0 11 6 15 8 4 9 3 5 -4
-10 -16 -1 -15 34 3 17 9 30 20 30 26 0 6 4 8 9 5 4 -3 28 7 52 22 24 16 52
31 62 35 11 4 15 12 11 18 -4 8 -3 9 4 5 14 -9 115 48 104 59 -4 4 -2 6 3 2 6
-3 32 7 58 22 39 22 45 30 34 41 -10 12 -9 12 4 2 13 -10 25 -7 63 14 25 14
46 30 46 35 0 6 4 8 8 5 12 -7 173 90 164 99 -4 5 -2 5 5 2 10 -6 123 54 223
119 19 12 47 28 62 35 15 6 25 16 21 22 -3 6 -1 7 4 4 6 -4 43 12 82 34 61 36
70 45 67 65 -5 27 5 37 28 28 16 -6 23 -25 9 -23 -21 3 -34 -2 -28 -11 9 -14
67 21 61 37 -3 7 -1 15 4 18 6 4 6 14 -1 28 -11 21 -10 21 6 5 14 -13 16 -20
7 -31 -21 -25 0 -27 39 -5 21 12 35 26 32 31 -3 6 -1 7 5 3 12 -7 60 20 54 30
-2 3 0 9 4 12 4 4 4 1 0 -5 -4 -7 -4 -13 0 -13 10 0 79 43 82 52 2 4 9 8 15 8
22 0 226 124 220 133 -3 6 -1 7 5 3 7 -4 75 30 153 76 78 46 161 94 183 106
23 13 112 64 199 114 86 50 157 95 157 101 0 6 3 7 6 4 10 -10 84 35 77 46 -3
6 -1 7 5 4 15 -10 43 3 35 17 -3 6 -3 8 2 4 10 -9 85 29 85 43 0 6 4 8 10 4 5
-3 18 3 30 15 11 11 22 20 25 20 3 0 10 0 16 0 5 0 7 5 3 12 -5 7 -3 8 5 4 7
-5 20 -2 29 6 9 8 34 23 54 33 20 10 34 23 31 28 -3 6 -1 7 5 3 15 -9 73 24
65 37 -3 6 -1 7 4 4 11 -7 103 40 103 52 0 4 6 8 13 8 6 0 43 18 81 41 37 23
70 42 72 42 12 0 183 108 178 112 -3 4 3 5 13 5 10 -1 17 4 15 11 -1 8 2 11 8
7 14 -9 141 66 133 78 -3 6 -1 7 5 3 11 -7 50 13 192 98 47 28 98 57 113 65
17 9 26 20 22 29 -4 11 -2 12 7 4 10 -7 33 1 86 32 40 23 69 46 65 51 -5 4 -2
5 6 0 9 -5 19 -2 28 10 7 11 13 16 13 12 0 -4 17 3 38 16 20 13 45 26 55 30
20 7 23 27 5 27 -7 0 -5 5 5 11 10 6 21 8 24 5 4 -3 1 -6 -6 -6 -7 0 -10 -4
-6 -10 3 -5 12 -7 20 -4 8 4 12 11 8 17 -3 6 -1 7 5 3 12 -7 48 12 52 28 1 5
-4 13 -12 17 -10 7 -10 9 0 9 7 0 15 -6 18 -14 4 -12 16 -8 57 16 29 17 54 33
57 37 3 3 11 7 19 9 8 2 26 11 40 21 14 10 46 28 71 41 25 12 53 32 63 44 10
11 16 15 12 8 -5 -10 1 -9 24 2 17 9 31 18 31 20 0 1 -20 2 -45 1 -25 -1 -45
2 -45 6 0 4 24 6 53 4 43 -2 60 2 102 27 28 17 52 33 55 37 3 3 11 7 19 9 8 2
26 11 40 20 14 10 38 24 54 32 20 10 24 16 15 23 -9 6 -8 7 4 3 27 -8 223 111
280 171 15 15 43 55 63 88 28 46 35 67 31 90 -4 20 -3 25 3 16 7 -10 12 0 18
35 4 27 8 2394 8 5259 l0 5210 -23 65 c-13 36 -33 73 -45 83 -12 10 -16 16 -9
12 19 -10 14 2 -14 32 -15 15 -30 27 -35 25 -5 -1 -8 4 -7 10 2 7 -4 11 -12
10 -8 -2 -12 0 -7 4 9 9 -43 65 -55 58 -4 -3 -8 -1 -8 5 0 14 -75 52 -85 43
-5 -4 -5 -1 -1 6 4 6 3 12 -2 12 -4 0 -38 18 -74 40 -36 21 -72 40 -79 42 -8
2 -18 8 -24 14 -17 19 -130 79 -120 63 6 -8 1 -5 -10 6 -20 21 -46 38 -135 87
-25 14 -96 55 -158 92 -63 36 -118 63 -124 60 -7 -4 -8 -2 -4 4 10 16 -6 15
-24 0 -12 -11 -12 -10 -1 4 11 15 11 19 -5 25 -10 4 -58 30 -108 60 -49 29
-94 50 -100 46 -6 -3 -8 -3 -4 2 10 11 -293 187 -310 180 -7 -3 -11 -1 -7 4 7
12 -84 63 -98 54 -5 -3 -7 -2 -4 4 5 9 -104 78 -134 85 -7 2 -21 11 -31 21
-16 15 -22 16 -34 6 -10 -8 -18 -9 -25 -2 -8 8 -7 13 2 18 8 5 10 4 5 -3 -4
-7 -2 -12 3 -12 6 0 11 4 11 9 0 11 -74 55 -86 52 -4 -2 -10 1 -13 6 -3 5 -31
23 -61 40 -52 30 -78 37 -73 21 2 -4 -4 -5 -13 -1 -12 5 -13 7 -3 14 8 4 11
10 9 11 -29 22 -61 38 -54 27 4 -8 -9 1 -30 19 -20 18 -41 30 -47 27 -5 -4 -9
-2 -9 4 0 5 -14 3 -31 -6 -16 -8 -33 -13 -36 -10 -3 4 6 9 21 13 14 3 26 10
26 15 0 11 -75 50 -84 44 -3 -3 -4 -2 -1 2 8 10 -151 100 -172 98 -10 0 -24
-4 -31 -8 -8 -6 -10 -3 -6 8 4 9 13 14 20 11 29 -11 12 3 -47 38 -47 28 -64
34 -79 26 -13 -7 -21 -7 -25 0 -6 9 1 14 18 11 4 0 7 1 7 3 0 5 -295 176 -304
176 -4 0 -4 -6 0 -12 4 -8 3 -10 -2 -5 -5 5 -9 13 -9 19 0 5 -39 32 -87 58
-84 46 -104 51 -75 20 10 -12 9 -12 -5 -1 -10 7 -18 19 -18 26 0 8 -26 28 -57
46 -32 17 -72 40 -90 51 -23 14 -33 16 -39 7 -4 -8 -3 -9 4 -5 8 5 10 2 6 -8
-3 -9 -10 -16 -16 -16 -5 0 -7 4 -4 9 4 5 0 12 -6 14 -10 4 -10 6 0 6 6 1 12
6 12 12 0 6 -7 8 -16 5 -8 -3 -13 -2 -10 3 8 12 -113 83 -127 74 -7 -3 -9 -3
-5 2 8 8 -54 49 -136 90 -22 11 -62 35 -90 53 -28 17 -56 32 -63 32 -7 0 -13
4 -13 8 0 13 -50 33 -62 26 -6 -4 -8 -3 -5 3 8 12 -71 55 -85 46 -7 -3 -8 -1
-4 5 8 13 -30 36 -44 27 -6 -4 -9 -2 -8 4 5 17 -164 112 -178 100 -8 -7 -11
-4 -10 8 1 12 -7 18 -22 19 -12 1 -26 5 -30 9 -4 5 1 5 11 2 30 -11 18 0 -24
22 -22 12 -38 17 -35 12 3 -5 -3 -7 -15 -4 -12 3 -16 9 -10 12 6 4 -37 35 -95
69 -85 50 -109 60 -120 51 -12 -9 -13 -9 -9 3 5 11 -32 38 -140 102 -81 47
-151 86 -156 86 -6 0 -20 9 -32 20 -12 11 -28 18 -36 15 -9 -3 -12 -3 -8 1 5
6 -184 124 -198 124 -2 0 -32 18 -67 39 -55 36 -88 45 -73 21 3 -4 -5 -5 -17
-2 -19 5 -20 7 -5 10 28 6 20 15 -46 53 -34 20 -95 55 -135 79 -63 37 -75 40
-90 29 -15 -13 -16 -12 -4 2 11 15 7 20 -34 43 -25 14 -51 23 -57 19 -5 -3 -7
-2 -4 4 3 5 -12 20 -33 32 -22 12 -40 19 -40 15 0 -4 -7 1 -15 12 -8 10 -15
15 -15 10 0 -5 -10 0 -22 11 -40 35 -207 125 -219 117 -7 -4 -9 -3 -6 3 8 13
-114 85 -133 78 -8 -4 -11 -3 -7 1 11 11 -75 65 -93 58 -8 -3 -11 -2 -7 2 10
10 -31 36 -45 28 -6 -4 -8 -3 -5 3 8 13 -83 62 -102 55 -8 -2 -11 0 -7 6 6 11
-166 115 -191 115 -7 0 -11 3 -8 5 5 5 -72 52 -90 55 -5 1 -12 5 -15 8 -18 22
-110 68 -126 63 -14 -4 -15 -3 -6 4 10 6 -12 23 -79 62 -87 49 -94 51 -106 34
-7 -10 -13 -13 -13 -8 0 6 5 15 11 21 7 7 -2 17 -31 32 -23 12 -46 19 -51 15
-5 -3 -8 -1 -7 5 4 14 -131 93 -146 84 -6 -3 -8 -2 -3 2 10 11 -70 58 -85 49
-6 -4 -8 -3 -5 4 8 13 -92 71 -119 69 -10 -1 -19 4 -19 12 0 8 -32 31 -71 52
-39 20 -91 50 -115 65 -24 15 -52 27 -62 26 -9 0 -15 3 -12 8 7 11 -30 32 -39
23 -3 -3 -6 -1 -6 6 0 7 -4 10 -9 7 -5 -3 -12 1 -15 10 -3 8 -10 13 -15 10 -5
-4 -11 -2 -13 3 -1 6 -64 44 -138 87 -163 93 -170 96 -292 168 -56 33 -102 54
-109 50 -7 -4 -9 -3 -5 4 6 9 -143 101 -153 93 -2 -1 -7 1 -10 6 -7 11 -175
113 -185 113 -4 0 -4 -5 0 -12 4 -7 3 -8 -5 -4 -6 4 -9 11 -7 15 3 4 -12 17
-34 29 -27 14 -40 17 -44 9 -2 -7 -5 -6 -5 3 -1 19 -57 54 -71 45 -6 -4 -9 -1
-8 7 2 7 -5 12 -15 12 -10 -1 -16 1 -13 4 11 11 -230 145 -245 136 -5 -3 -9
-1 -9 5 0 21 -131 40 -210 29z"/>
<path fill="#28a6b8" d="M9770 20809 c-192 -50 -356 -109 -343 -124 5 -4 2 -5 -4 -1 -14 8
-123 -59 -123 -76 0 -5 -4 -7 -9 -4 -5 3 -25 -12 -45 -34 -92 -102 -136 -264
-137 -512 -1 -152 21 -305 41 -293 5 3 12 1 15 -5 4 -6 1 -9 -7 -8 -8 2 -12
-5 -10 -17 7 -48 91 -217 104 -209 7 4 8 2 4 -4 -7 -12 5 -41 27 -64 7 -7 18
-26 25 -41 6 -15 16 -26 21 -23 5 3 8 -2 7 -12 0 -9 4 -16 11 -15 7 2 10 -3 7
-10 -6 -16 30 -59 41 -49 5 4 5 2 2 -5 -8 -12 50 -113 64 -113 5 0 8 -3 7 -7
0 -5 2 -16 7 -26 6 -14 10 -15 23 -5 13 11 14 10 5 -7 -10 -17 -1 -32 58 -105
37 -47 73 -84 79 -82 5 1 9 -1 8 -5 -2 -5 2 -8 7 -8 6 0 9 2 8 5 -1 3 7 6 18
6 10 0 19 -6 19 -13 0 -7 -6 -10 -14 -7 -26 10 -30 -18 -5 -37 18 -13 26 -15
32 -6 5 7 6 2 2 -11 -4 -12 -3 -21 2 -20 4 2 9 0 11 -4 1 -4 22 -26 47 -49 40
-37 47 -40 62 -28 16 12 17 12 5 -2 -10 -14 -5 -21 34 -52 26 -20 51 -34 57
-30 5 3 7 1 4 -4 -4 -6 9 -23 28 -37 19 -15 35 -23 35 -19 0 4 5 0 11 -10 6
-9 14 -15 19 -12 5 3 14 -4 20 -15 6 -11 17 -20 25 -20 8 0 18 -6 22 -13 30
-50 304 -186 385 -192 3 0 10 -3 14 -7 11 -12 60 -10 165 6 112 17 230 46 225
55 -2 3 8 6 22 7 37 2 123 44 116 56 -4 6 -1 9 7 6 8 -3 20 2 27 11 8 9 10 10
7 3 -8 -15 99 43 132 72 16 14 20 23 12 32 -7 8 -6 14 2 20 8 4 9 3 5 -4 -4
-7 -1 -12 6 -12 13 1 115 90 102 90 -4 0 5 9 20 21 19 15 25 27 22 45 -3 14
-1 22 5 19 5 -4 6 -12 2 -18 -3 -7 3 -3 15 7 33 29 69 112 88 201 23 114 15
335 -16 423 -13 37 -26 59 -32 55 -7 -3 -8 -1 -4 5 8 13 -14 59 -52 112 -38
52 -44 57 -37 35 6 -19 6 -19 -5 -2 -7 10 -9 21 -6 25 3 3 -4 16 -16 29 -18
19 -20 26 -9 32 11 7 11 9 0 13 -8 3 -1 5 16 5 l29 1 -23 -19 c-40 -33 -12
-21 85 36 84 50 113 75 84 75 -5 0 -10 -5 -10 -12 0 -6 -3 -8 -6 -5 -4 4 -1
13 6 22 10 12 9 23 -5 57 -31 80 -47 108 -61 108 -7 0 -16 5 -20 12 -5 7 -2 9
7 4 8 -4 6 -1 -3 7 -10 8 -14 18 -10 22 4 5 -1 5 -10 2 -10 -3 -20 -2 -23 4
-4 5 -3 9 2 8 25 -4 23 4 -6 30 -18 16 -33 33 -34 38 -3 12 -41 5 -145 -29
-110 -35 -201 -86 -180 -100 9 -7 7 -8 -8 -3 -21 5 -92 -37 -154 -92 -16 -14
-57 -42 -92 -62 -51 -30 -62 -41 -60 -59 2 -16 -2 -22 -15 -22 -15 0 -16 2 -3
10 8 5 11 12 8 15 -9 10 -32 -8 -139 -108 -52 -49 -85 -86 -74 -82 16 4 15 3
-2 -6 -13 -7 -23 -18 -23 -26 0 -8 5 -11 13 -7 10 6 10 4 0 -7 -16 -16 -17
-49 -2 -49 5 0 7 -5 3 -11 -7 -12 143 -159 163 -159 6 0 9 10 7 23 l-5 22 10
-22 c9 -20 13 -21 42 -11 17 6 51 22 76 35 38 22 42 27 31 42 -10 13 -10 14 2
4 18 -16 34 -17 24 -1 -4 7 -3 8 5 4 6 -4 26 2 45 13 39 25 46 26 46 7 0 -8
15 -34 33 -58 58 -77 87 -135 87 -175 0 -39 -57 -174 -79 -188 -6 -3 -8 -11
-5 -17 4 -6 2 -8 -3 -5 -6 4 -16 1 -22 -7 -7 -8 -36 -24 -66 -36 l-55 -22 23
-20 22 -19 -26 16 c-24 14 -33 14 -115 -6 -110 -25 -161 -22 -248 19 -36 17
-66 29 -66 27 0 -2 -15 9 -32 26 -18 16 -41 32 -50 35 -10 3 -18 9 -18 13 0 5
-19 21 -42 37 -24 16 -56 40 -72 54 -15 14 -32 24 -37 22 -5 -1 -8 2 -7 7 2 4
-19 28 -47 53 -52 47 -91 101 -215 297 -69 108 -140 246 -140 271 0 6 -4 9 -8
6 -4 -2 -8 3 -9 12 0 9 -10 53 -22 97 -35 131 -29 334 12 383 14 18 18 42 6
42 -5 0 -9 8 -8 18 0 10 3 12 6 4 2 -6 9 -10 13 -7 5 3 7 -4 5 -15 -2 -11 -2
-20 0 -20 3 0 31 20 62 44 91 68 119 79 206 81 42 1 77 -1 77 -5 0 -4 10 -11
23 -17 12 -6 42 -27 65 -47 24 -20 48 -33 53 -30 5 3 8 1 7 -3 -5 -15 74 -93
114 -114 39 -20 98 -26 98 -9 0 5 7 7 15 4 8 -4 15 -1 15 5 0 6 3 10 8 9 13
-4 52 13 52 23 0 8 -15 13 -33 10 -5 -1 -5 3 -2 9 5 8 14 6 29 -4 21 -13 26
-12 62 8 21 13 38 28 37 34 -2 7 2 11 8 9 6 -1 14 4 17 12 3 11 -2 12 -24 7
-19 -4 -24 -3 -15 3 11 7 10 10 -5 14 -10 2 -4 4 13 3 18 0 33 -4 33 -8 0 -22
20 -4 30 27 12 36 6 84 -13 120 -6 11 -12 23 -13 28 -4 20 -7 20 -15 -3 -7
-23 -8 -23 -6 7 1 22 -8 45 -33 77 -33 45 -55 60 -44 32 3 -8 1 -17 -5 -21 -7
-4 -8 0 -4 11 5 13 3 15 -8 9 -12 -7 -12 -6 -1 7 11 14 10 19 -9 37 -12 11
-27 18 -32 14 -6 -3 -7 -1 -4 4 6 10 -59 60 -85 65 -7 2 -19 9 -26 16 -10 9
-18 10 -27 2 -10 -8 -15 -8 -21 1 -4 8 -3 9 4 5 7 -4 12 -3 12 2 0 12 -95 46
-200 72 -120 28 -211 26 -350 -11z"/>
<path fill="#28a6b8" d="M8250 20034 c-41 -20 -77 -40 -78 -45 -2 -5 -7 -7 -12 -4 -8 5 -110
-99 -110 -113 0 -5 7 -15 15 -22 15 -13 11 -35 -6 -25 -5 4 -9 -3 -9 -14 0
-11 23 -44 51 -73 28 -29 49 -45 46 -36 -3 10 -2 20 3 23 4 3 7 -7 5 -22 -2
-20 5 -37 27 -60 17 -18 35 -30 40 -27 5 3 7 1 6 -5 -3 -9 170 -221 180 -221
2 0 -2 8 -9 18 -13 15 -12 16 3 4 9 -8 15 -19 12 -25 -2 -7 16 -32 41 -57 24
-25 44 -50 45 -57 0 -19 21 -27 31 -12 6 10 8 6 5 -11 -2 -17 7 -38 28 -65 57
-73 79 -95 90 -88 6 3 8 2 3 -2 -10 -11 63 -86 76 -78 6 3 7 1 4 -4 -8 -13 27
-46 38 -36 4 5 5 3 2 -3 -8 -14 17 -37 27 -26 4 4 7 2 5 -3 -4 -16 12 -45 21
-40 5 3 7 16 6 29 -2 17 1 23 10 19 17 -6 18 -18 2 -42 -10 -16 -5 -26 37 -73
26 -29 51 -52 54 -51 4 1 7 -7 7 -17 0 -17 -2 -17 -16 -5 -8 7 -22 15 -30 17
-8 2 -21 9 -29 16 -7 7 -20 11 -28 8 -8 -3 -12 -2 -9 3 7 11 -22 23 -36 14 -7
-3 -8 -1 -4 5 6 11 0 14 -20 11 -4 0 -10 4 -13 9 -7 10 -94 56 -100 53 -2 -2
-7 1 -10 6 -13 19 -62 43 -74 37 -7 -4 -9 -4 -5 1 9 10 -172 116 -184 109 -4
-3 -8 0 -8 5 0 6 -27 24 -60 41 -33 17 -60 28 -60 24 0 -3 -7 2 -16 11 -9 9
-23 14 -31 11 -8 -3 -12 -2 -9 3 11 17 -395 197 -416 185 -7 -5 -8 -3 -3 6 6
10 4 12 -8 7 -10 -3 -17 -3 -17 2 0 15 -77 30 -90 17 -8 -8 -11 -8 -8 1 2 6
-1 11 -6 11 -5 0 -12 4 -15 10 -13 20 -136 52 -201 52 -74 0 -195 -35 -183
-52 3 -6 1 -8 -4 -5 -11 7 -78 -38 -103 -68 -8 -10 -10 -16 -4 -12 6 3 11 0
11 -7 0 -7 -6 -13 -14 -12 -14 1 -21 -10 -60 -89 -24 -48 -18 -84 24 -124 15
-15 36 -38 46 -51 10 -14 16 -20 13 -15 -3 6 0 17 5 25 9 13 10 13 8 0 -1 -8
-1 -24 0 -35 1 -24 108 -161 123 -157 5 1 7 -2 4 -6 -3 -5 4 -18 16 -28 12
-11 18 -13 13 -5 -5 10 -4 12 4 7 6 -4 8 -12 5 -18 -4 -6 14 -31 40 -57 25
-25 59 -62 75 -80 24 -28 32 -33 43 -23 12 9 15 9 15 -3 0 -8 -4 -12 -9 -9 -4
3 -8 -2 -8 -11 0 -8 7 -18 15 -21 8 -3 23 -21 35 -40 11 -20 25 -32 30 -29 6
4 9 2 8 -3 -3 -11 96 -135 135 -169 14 -12 29 -18 33 -15 4 4 4 1 -1 -6 -9
-16 63 -94 78 -85 6 4 7 1 2 -6 -8 -14 43 -73 57 -65 5 3 7 1 6 -4 -4 -12 122
-138 134 -134 5 1 7 -2 4 -7 -8 -13 53 -63 67 -54 7 3 9 3 5 -2 -10 -10 56
-89 203 -244 68 -71 127 -127 133 -124 5 3 6 1 2 -6 -4 -6 4 -24 18 -41 16
-19 26 -25 29 -17 3 7 6 4 6 -6 1 -27 102 -139 118 -132 8 3 11 0 8 -6 -7 -10
27 -44 73 -76 20 -14 26 -14 50 -2 15 8 33 21 40 29 8 8 11 9 7 3 -10 -20 7
-15 48 12 20 14 37 23 37 20 0 -3 23 7 50 22 28 15 50 31 50 36 0 4 5 5 10 2
6 -3 10 -1 10 5 0 6 4 9 9 6 14 -9 84 61 76 75 -5 7 -4 10 3 5 32 -20 22 74
-12 106 -11 12 -15 17 -8 13 11 -6 12 -3 3 14 -7 11 -16 21 -22 21 -6 0 -8 4
-5 9 7 11 -19 33 -28 24 -4 -4 -5 -1 -2 7 3 9 -10 32 -30 55 -20 22 -30 31
-23 20 13 -18 12 -19 -3 -7 -9 8 -15 19 -12 26 2 6 -8 23 -22 36 -15 14 -24
20 -20 13 3 -6 2 -14 -3 -18 -6 -3 -8 5 -6 18 4 18 -13 41 -73 104 -42 45 -73
79 -67 75 5 -3 4 2 -4 11 -7 9 -18 14 -24 10 -5 -3 -7 -2 -4 4 4 6 -7 22 -23
37 -17 14 -30 31 -30 37 0 6 -7 9 -14 6 -10 -4 -13 -1 -10 7 3 7 -2 19 -11 26
-14 12 -18 11 -27 -1 -8 -11 -9 -10 -4 5 5 14 -17 42 -91 118 -62 63 -91 99
-78 96 11 -1 22 -6 25 -9 3 -3 47 -27 98 -53 81 -41 95 -45 115 -34 28 15 49
19 41 7 -3 -5 -8 -7 -12 -5 -4 2 -15 -2 -26 -9 -17 -13 -16 -15 13 -30 17 -8
31 -12 31 -9 0 4 10 -2 23 -13 26 -23 117 -76 117 -68 0 3 10 -1 23 -10 13 -8
27 -12 32 -8 4 5 5 2 1 -4 -7 -13 1 -16 39 -14 11 0 14 -2 7 -5 -8 -4 2 -13
25 -24 62 -30 213 -99 216 -98 1 0 19 -7 40 -15 21 -9 45 -18 55 -19 9 -2 19
-6 22 -9 3 -3 58 -24 123 -47 l118 -40 94 33 c113 40 135 52 135 68 0 8 -4 7
-11 -3 -9 -13 -10 -13 -6 0 2 8 11 14 20 12 18 -3 107 75 107 95 0 7 6 13 14
13 24 0 48 30 37 44 -8 9 -7 13 4 13 8 0 12 -4 9 -9 -3 -4 -1 -8 5 -8 14 0 41
42 34 53 -3 6 -1 7 4 4 10 -7 43 33 43 51 0 15 -37 52 -44 44 -4 -4 -6 -2 -4
3 5 15 -63 95 -75 88 -6 -3 -7 -2 -4 4 7 11 -36 56 -46 48 -4 -3 -5 -2 -2 2 7
8 -45 63 -59 63 -6 0 -4 -5 4 -11 13 -9 13 -10 0 -6 -8 2 -14 10 -12 17 3 14
-128 151 -139 145 -4 -3 -11 0 -15 6 -5 8 -3 9 7 4 8 -5 5 1 -5 14 -11 12 -26
19 -33 16 -8 -3 -11 0 -8 6 4 6 -1 19 -11 30 -14 16 -20 17 -33 6 -14 -11 -14
-10 -2 6 12 15 11 20 -4 37 -10 11 -23 17 -29 13 -6 -3 -8 -3 -4 2 10 11 -103
137 -118 131 -7 -3 -19 3 -28 13 -13 15 -14 18 -2 18 8 0 14 -3 13 -6 -1 -3 1
-7 6 -8 4 -2 7 -1 7 2 1 9 -113 149 -144 178 -16 15 -26 27 -22 27 5 0 3 7 -4
15 -7 8 -17 12 -23 8 -5 -3 -7 -1 -3 5 3 6 -16 35 -43 64 -26 29 -61 68 -76
86 -15 17 -31 29 -36 26 -5 -3 -8 -1 -7 5 4 15 -142 182 -153 175 -5 -3 -8 -1
-7 4 2 6 -40 57 -92 115 -75 82 -100 104 -117 102 -13 -2 -25 0 -28 5 -3 5 4
7 15 5 14 -3 20 0 17 8 -3 7 -10 11 -16 9 -7 -1 -10 1 -7 6 7 12 -48 64 -59
55 -4 -5 -5 -2 -1 5 5 8 -4 25 -23 44 -17 18 -31 36 -31 40 0 5 -11 6 -24 4
-19 -3 -23 -1 -19 11 5 12 7 12 14 1 5 -7 9 -8 9 -3 0 6 -17 28 -38 48 -37 37
-60 49 -46 25 5 -9 2 -9 -9 1 -18 15 -23 26 -7 16 6 -3 10 -1 10 5 0 14 -61
40 -92 40 -13 0 -57 -16 -98 -36z"/>
<path fill="#28a6b8" d="M12563 19200 c-13 -5 -23 -12 -23 -15 0 -4 5 -3 12 1 7 4 8 3 4 -4
-4 -6 -13 -9 -20 -6 -8 3 -20 -3 -27 -14 -8 -11 -18 -20 -24 -20 -5 -1 -23
-12 -40 -25 -16 -13 -40 -29 -53 -36 -13 -7 -20 -17 -16 -24 4 -7 4 -9 -1 -5
-12 11 -47 -11 -39 -24 5 -7 2 -9 -7 -6 -18 7 -92 -46 -81 -57 4 -5 1 -5 -6
-1 -15 9 -45 -12 -36 -25 3 -5 -1 -6 -9 -4 -7 3 -25 -5 -40 -19 -15 -14 -42
-37 -62 -52 -33 -25 -50 -54 -22 -38 8 5 8 2 -2 -9 -15 -18 -26 -23 -16 -7 3
6 -1 10 -9 10 -9 0 -21 -9 -28 -20 -7 -11 -17 -20 -22 -20 -15 0 -166 -142
-160 -151 3 -5 1 -8 -4 -7 -15 5 -72 -44 -65 -55 3 -6 1 -7 -5 -3 -7 4 -12 2
-12 -3 0 -6 -3 -10 -8 -8 -7 2 -132 -92 -132 -100 0 -2 5 -1 12 3 7 4 8 3 4
-5 -4 -6 -12 -9 -17 -5 -14 8 -60 -36 -52 -49 3 -6 1 -7 -6 -3 -7 4 -27 -6
-49 -25 -98 -85 -167 -153 -164 -161 1 -5 -2 -7 -6 -4 -12 7 -44 -28 -35 -39
5 -4 3 -5 -3 -2 -14 8 -38 -18 -29 -32 3 -6 0 -8 -8 -5 -17 6 -112 -100 -102
-115 3 -6 0 -8 -9 -5 -16 6 -40 -28 -28 -41 4 -5 2 -5 -4 -2 -15 9 -38 -38
-38 -79 0 -39 32 -87 60 -92 10 -2 28 -18 39 -35 15 -24 49 -46 135 -89 63
-31 119 -54 124 -51 5 4 6 1 2 -5 -8 -13 28 -35 39 -24 3 4 5 1 3 -7 -9 -38
106 -53 195 -26 27 8 103 22 170 31 67 9 133 23 146 31 13 8 20 10 17 4 -4 -6
-4 -11 1 -11 24 0 600 72 613 77 8 3 26 6 40 7 14 1 39 3 55 4 24 2 27 4 15
13 -12 8 -10 9 8 4 21 -6 270 21 302 32 20 8 64 3 70 -8 4 -5 3 -42 -1 -84 -4
-41 -11 -202 -14 -357 -6 -226 -4 -321 9 -473 21 -243 34 -339 46 -343 6 -2 8
-7 5 -12 -3 -5 17 -32 44 -62 48 -52 49 -53 69 -35 11 10 23 14 26 9 3 -5 -4
-12 -16 -16 -25 -6 -18 -16 23 -33 17 -8 30 -8 40 -1 11 8 10 8 -5 4 -16 -6
-17 -4 -6 9 10 12 15 13 21 3 4 -7 4 -17 -1 -23 -13 -16 128 -85 175 -85 20 0
34 3 32 8 -3 4 5 8 18 8 29 2 144 68 168 97 10 12 15 15 11 8 -9 -18 57 27 69
46 4 7 13 13 19 13 9 0 105 75 128 100 3 3 42 36 87 74 45 38 80 73 77 77 -9
15 -24 10 -25 -8 0 -15 -2 -15 -8 2 -11 25 -5 35 20 35 11 0 17 -4 14 -10 -11
-18 22 -11 49 11 14 11 23 25 20 31 -4 6 -2 8 3 5 6 -4 16 0 22 7 9 11 9 16 0
22 -7 4 -20 -2 -31 -16 -12 -14 -19 -18 -20 -9 0 8 -2 19 -2 24 -1 6 -6 16
-10 24 -7 11 -3 10 14 -2 17 -12 28 -14 43 -6 13 8 17 8 13 1 -3 -6 -2 -14 4
-17 14 -9 42 14 33 28 -3 5 -2 7 3 4 6 -3 40 23 78 58 48 45 61 62 45 58 -13
-3 -21 -3 -18 1 4 4 17 8 31 9 28 2 140 96 131 110 -4 6 -1 7 6 2 15 -9 103
73 94 88 -3 6 -2 7 4 4 5 -3 41 26 79 65 38 38 112 104 164 147 174 140 202
180 226 313 5 31 3 39 -12 45 -9 3 -25 14 -35 22 -48 43 -51 45 -61 30 -8 -11
-9 -10 -5 3 7 19 -57 63 -75 52 -6 -4 -8 -2 -5 3 4 6 -16 25 -46 44 -28 17
-84 53 -124 79 -39 27 -74 45 -77 42 -12 -11 -5 -24 10 -18 9 3 12 2 9 -5 -4
-5 -16 -7 -28 -3 -20 6 -21 5 -7 -12 11 -15 11 -16 0 -7 -14 13 -23 44 -12 40
4 -1 8 3 10 8 1 6 -4 10 -10 10 -7 0 -16 4 -19 8 -3 5 -25 11 -48 14 -32 4
-54 0 -89 -17 -66 -32 -143 -92 -138 -107 3 -7 -1 -10 -10 -6 -7 3 -14 0 -14
-6 0 -6 -6 -11 -12 -11 -7 0 -40 -26 -73 -56 -33 -31 -51 -50 -40 -43 17 11
18 11 7 -1 -7 -8 -20 -15 -29 -15 -9 0 -18 -6 -21 -14 -3 -9 0 -11 9 -6 8 5
11 4 6 -1 -5 -5 -12 -9 -15 -9 -19 -1 -52 -27 -46 -37 4 -6 3 -8 -3 -5 -6 4
-45 -21 -88 -55 -57 -46 -73 -63 -63 -70 10 -8 9 -9 -4 -5 -19 7 -53 -16 -53
-35 -1 -7 -6 -12 -13 -10 -12 2 -152 -112 -179 -146 -11 -13 -13 -11 -13 17 0
18 -3 30 -7 28 -5 -3 -7 83 -5 191 2 109 -1 267 -6 352 -12 181 -33 253 -92
312 -55 55 -96 62 -280 50 -179 -12 -791 -93 -784 -103 2 -4 -1 -11 -7 -15 -7
-4 -9 -3 -5 4 3 6 -3 14 -15 17 -16 6 -18 9 -8 15 7 5 17 6 23 3 5 -3 14 0 20
8 6 8 46 41 89 73 43 32 74 62 70 68 -3 6 -1 8 4 5 12 -7 174 130 199 168 17
25 114 123 177 176 21 17 35 34 33 37 -3 2 1 11 9 19 27 26 18 87 -17 134 -34
43 -108 106 -94 79 6 -12 5 -11 -6 1 -7 9 -51 41 -98 72 -47 30 -95 65 -107
77 -13 11 -23 18 -23 15 0 -3 -9 4 -20 15 -12 12 -32 25 -46 30 -31 12 -111
12 -141 0z"/>
<path fill="#28a6b8" d="M6630 19047 c-26 -16 -29 -22 -18 -36 12 -14 11 -15 -5 -2 -15 12
-20 11 -37 -4 -13 -11 -18 -25 -14 -37 3 -10 0 -18 -6 -18 -6 0 -8 5 -5 10 13
21 -12 9 -36 -17 -13 -14 -17 -23 -9 -18 8 4 5 -2 -7 -14 -13 -12 -23 -29 -24
-39 -3 -47 5 -80 25 -107 13 -16 37 -60 55 -97 18 -38 36 -68 42 -68 5 0 8 -6
7 -12 -2 -7 3 -12 10 -10 8 1 11 -2 7 -7 -8 -14 24 -63 36 -55 5 3 8 0 7 -8
-2 -7 3 -12 10 -10 8 1 11 -2 7 -8 -7 -11 66 -114 91 -128 9 -5 16 -13 15 -18
-1 -17 103 -153 112 -147 6 3 7 1 4 -4 -8 -13 48 -85 58 -75 5 4 5 2 2 -4 -8
-14 31 -67 43 -59 4 3 11 -2 14 -11 4 -9 2 -13 -5 -8 -6 3 17 -32 52 -79 34
-48 66 -84 71 -81 5 3 7 0 6 -7 -2 -7 3 -14 10 -15 6 -1 15 -3 20 -4 4 -1 11
-2 15 -1 5 1 6 -3 2 -9 -5 -8 -11 -7 -21 1 -33 27 -10 -12 32 -56 36 -37 49
-44 56 -34 8 11 9 11 5 -1 -2 -8 -11 -14 -18 -12 -10 3 -9 -1 2 -15 124 -144
193 -217 201 -215 5 1 7 -2 4 -7 -7 -11 43 -53 54 -46 5 3 6 -3 3 -13 -4 -17
63 -90 79 -85 4 2 5 -3 3 -10 -7 -18 180 -201 196 -192 8 6 10 4 4 -4 -9 -15
53 -83 68 -74 6 3 7 2 4 -4 -8 -12 46 -53 70 -53 14 0 15 -2 5 -9 -10 -6 -4
-12 20 -22 18 -8 38 -14 43 -15 6 0 18 -4 28 -9 27 -11 87 3 142 36 28 16 79
43 114 61 35 19 75 48 90 67 14 19 19 31 11 27 -9 -4 -8 -1 3 7 19 16 24 32 5
21 -7 -4 -8 -3 -4 5 4 6 11 9 16 6 4 -3 13 2 20 11 11 12 11 17 0 27 -9 9 -11
9 -6 0 3 -6 2 -14 -3 -18 -6 -3 -8 5 -5 20 2 14 0 25 -6 25 -5 0 -16 15 -24
33 -7 17 -30 50 -51 72 -20 22 -31 31 -24 20 11 -17 11 -18 -1 -7 -8 7 -15 20
-15 30 0 12 -7 16 -25 14 -18 -1 -21 0 -11 7 12 8 12 13 -3 35 -9 15 -22 24
-28 20 -6 -4 -8 -3 -5 3 4 6 -3 19 -15 29 -14 12 -19 14 -13 4 5 -9 4 -12 -1
-7 -5 5 -9 14 -9 22 0 18 -114 137 -125 130 -5 -3 -12 -1 -15 5 -5 8 -12 7
-23 -2 -15 -12 -16 -11 -3 5 10 13 17 15 27 6 31 -26 11 6 -42 66 -32 36 -61
62 -67 58 -6 -4 -7 -1 -3 6 5 7 0 21 -10 32 -17 19 -40 27 -30 11 3 -5 -1 -9
-9 -9 -11 0 -12 4 -4 14 12 13 -3 43 -21 43 -5 0 -59 51 -121 114 -62 63 -117
112 -123 109 -5 -3 -6 -1 -3 4 9 14 -61 85 -75 77 -6 -4 -8 -2 -4 4 8 14 -22
44 -36 36 -6 -4 -8 -2 -5 3 8 13 -27 46 -38 36 -4 -5 -5 -3 -2 3 9 15 -24 42
-46 39 -9 -2 -15 1 -11 6 3 5 11 6 17 2 15 -8 -7 21 -47 64 -16 18 -33 30 -37
27 -5 -3 -7 1 -4 8 3 7 -21 39 -54 71 -33 31 -81 84 -107 117 -44 56 -73 78
-61 46 3 -8 -2 -16 -14 -19 -10 -3 -17 -1 -13 4 3 5 1 9 -4 9 -5 0 -8 12 -6
26 3 31 10 39 19 25 3 -6 0 -11 -7 -11 -10 0 -9 -3 2 -9 8 -6 18 -7 22 -5 13
8 -54 79 -71 76 -13 -2 -14 -1 -2 7 12 8 9 15 -15 43 -16 18 -37 43 -47 55
-71 84 -177 184 -188 178 -7 -5 -10 -4 -5 3 17 28 -89 27 -134 -1z"/>
<path  fill="#28a6b8" d="M5756 18563 c-19 -3 -25 -7 -17 -12 9 -6 7 -10 -8 -14 -13 -3 -19 -1
-14 5 4 8 -5 9 -27 4 -69 -13 -110 -27 -106 -35 3 -4 -8 -8 -24 -8 -32 0 -205
-80 -233 -107 -9 -10 -17 -15 -17 -11 0 7 -66 -29 -173 -92 -51 -31 -56 -37
-45 -51 12 -15 11 -16 -6 -2 -16 13 -20 12 -33 -5 -7 -11 -16 -19 -19 -17 -10
6 -94 -73 -90 -85 3 -7 -1 -10 -10 -6 -10 3 -12 0 -8 -10 3 -8 0 -18 -7 -23
-8 -4 -10 -3 -5 4 4 7 5 12 2 12 -13 0 -36 -62 -36 -97 0 -27 8 -47 26 -68 15
-16 51 -63 80 -102 30 -40 58 -73 62 -73 5 0 15 -11 22 -25 8 -14 20 -23 27
-21 7 3 15 0 19 -6 5 -7 2 -8 -6 -3 -25 15 -4 -13 64 -89 38 -41 72 -73 77
-70 5 3 6 10 3 16 -4 6 -2 8 4 5 5 -4 8 -16 5 -28 -6 -23 43 -82 61 -72 6 3 8
3 4 -2 -9 -10 9 -45 24 -45 7 0 6 5 -2 15 -7 9 -8 15 -2 15 5 0 12 -6 15 -14
3 -8 16 -12 34 -10 27 4 27 4 5 -6 -13 -5 -28 -8 -33 -4 -21 12 -6 -12 38 -65
25 -31 51 -60 57 -66 7 -5 29 -32 51 -60 21 -27 55 -65 74 -82 19 -18 30 -33
25 -33 -11 0 17 -20 29 -20 5 0 6 4 3 8 -3 5 1 9 8 9 7 0 13 -6 13 -13 0 -7
-4 -11 -8 -8 -16 10 -17 -13 -1 -28 9 -8 24 -24 31 -36 8 -12 21 -24 29 -27
12 -5 13 -3 2 10 -11 13 -10 14 4 9 10 -4 14 -14 11 -28 -4 -15 6 -33 31 -61
20 -22 41 -39 46 -37 5 1 7 -2 4 -6 -5 -9 118 -162 131 -162 3 0 -2 9 -12 20
-17 18 -17 20 -2 14 16 -6 21 -17 18 -37 -1 -4 4 -14 11 -21 7 -7 35 -36 61
-65 27 -28 53 -48 59 -45 6 4 8 2 5 -3 -8 -13 17 -36 28 -25 5 4 5 2 1 -5 -8
-14 93 -125 107 -116 6 3 7 1 3 -5 -3 -6 0 -14 8 -19 7 -4 37 -39 67 -78 29
-38 55 -72 58 -75 3 -3 24 -27 46 -55 73 -93 121 -139 130 -125 6 9 4 11 -5 5
-9 -5 -11 -4 -6 4 6 9 11 9 22 0 16 -13 19 -23 4 -14 -5 3 -10 -1 -10 -9 0 -8
4 -18 10 -21 16 -10 130 38 130 55 0 12 2 12 9 1 10 -16 20 -3 16 22 -2 9 1
15 6 11 5 -3 7 -10 4 -15 -10 -16 5 -10 27 11 12 11 18 20 13 20 -5 0 1 7 13
16 19 13 100 164 115 214 4 15 -82 117 -96 112 -4 -1 -6 2 -5 7 2 5 -4 17 -14
28 -99 110 -144 153 -155 148 -8 -2 -11 0 -8 5 3 5 -39 56 -94 112 -55 57
-110 116 -122 132 -21 26 -23 27 -35 11 -12 -16 -13 -16 -11 3 0 12 3 19 5 17
2 -2 20 8 39 21 20 13 40 24 45 24 5 0 6 4 3 10 -3 5 0 7 7 5 8 -3 23 2 33 12
11 10 27 19 35 20 8 1 42 11 74 23 54 20 226 43 226 30 0 -8 91 -45 102 -42 5
1 7 -2 4 -7 -8 -12 60 -54 74 -46 6 4 9 1 8 -7 -2 -7 5 -12 14 -12 10 1 16 -3
15 -9 -1 -6 4 -11 11 -12 7 0 17 -6 21 -14 5 -8 14 -10 21 -6 8 5 11 4 6 -3
-4 -6 6 -19 21 -29 15 -9 43 -30 61 -45 24 -20 40 -27 55 -23 16 5 18 4 8 -3
-11 -8 -10 -12 7 -21 28 -15 33 -14 124 10 48 13 75 25 71 32 -3 6 -1 7 6 3
16 -10 53 3 45 16 -4 7 -2 8 4 4 13 -8 132 50 132 65 0 5 5 7 10 4 19 -12 10
10 -28 68 -21 31 -42 54 -45 50 -4 -3 -7 -1 -7 5 0 15 -42 58 -53 54 -4 -1 -6
2 -5 7 4 12 -204 216 -215 213 -5 -1 -6 1 -3 6 8 14 -97 106 -135 119 -19 6
-67 25 -108 42 -57 24 -88 31 -141 31 -38 0 -71 -4 -75 -10 -3 -5 -12 -7 -20
-4 -22 9 -126 -16 -132 -32 -7 -18 -23 -18 -23 0 0 8 7 16 15 20 17 6 20 42 5
51 -5 3 -10 14 -9 23 0 14 2 13 9 -3 16 -39 23 12 17 128 -5 116 -32 232 -50
220 -6 -3 -7 -1 -3 6 9 14 -67 171 -100 206 -13 14 -23 28 -22 31 2 11 -72
104 -83 104 -6 0 -8 4 -5 9 7 11 -30 45 -42 37 -5 -3 -9 2 -8 11 1 18 -112
115 -126 107 -4 -3 -11 1 -14 9 -7 20 -101 60 -125 54 -10 -3 -17 0 -16 5 4
22 -69 36 -183 36 -63 -1 -128 -3 -144 -5z m233 -409 c18 -8 38 -11 44 -7 5 3
7 1 4 -4 -4 -6 6 -19 21 -28 15 -10 40 -33 55 -52 16 -18 33 -30 39 -27 7 4 8
2 4 -4 -4 -6 2 -20 14 -32 11 -11 19 -21 19 -22 -5 -8 14 -47 20 -43 5 2 8 -3
8 -13 0 -33 3 -43 11 -38 11 6 14 -28 15 -141 1 -100 -5 -163 -14 -163 -4 0
-10 -7 -13 -16 -5 -12 -2 -15 9 -10 9 3 13 2 10 -4 -3 -6 -11 -10 -17 -10 -13
0 -73 -62 -70 -73 1 -5 -2 -6 -7 -3 -5 3 -15 -2 -22 -11 -12 -14 -12 -16 1 -8
9 5 12 5 7 -1 -5 -5 -12 -9 -17 -9 -5 0 -23 -11 -42 -25 -32 -24 -59 -35 -55
-22 3 14 -56 92 -72 93 -10 0 -11 2 -4 6 9 3 9 11 -3 29 -9 13 -20 21 -25 18
-5 -3 -8 0 -7 8 2 7 -3 12 -10 10 -7 -1 -12 4 -10 12 4 17 -90 148 -101 141
-4 -2 -7 -14 -5 -27 1 -13 3 -27 3 -31 1 -5 5 -6 9 -3 4 2 8 -4 8 -15 0 -19
-1 -18 -17 3 -17 22 -19 53 -5 76 9 15 -38 64 -50 53 -4 -3 -4 0 1 8 5 9 2 19
-10 28 -11 7 -15 13 -11 13 4 0 -15 27 -44 60 -29 33 -57 57 -63 53 -5 -3 -7
-1 -3 5 3 6 -5 23 -18 39 l-25 28 20 21 c15 16 17 24 8 29 -8 5 -10 4 -5 -3 4
-7 2 -12 -5 -12 -7 0 -22 -8 -33 -17 -17 -14 -16 -13 2 8 13 15 20 29 15 31
-4 3 -2 3 5 2 6 -2 12 2 12 9 0 8 3 8 9 -2 7 -10 31 -1 115 44 139 74 205 85
295 49z"/>
<path fill="#28a6b8" d="M4479 17818 c-54 -28 -117 -67 -139 -86 -33 -30 -40 -42 -40 -73 0
-21 5 -50 11 -66 8 -22 12 -25 20 -13 8 12 9 10 4 -6 -4 -16 1 -26 20 -38 14
-9 23 -22 19 -27 -3 -6 5 -23 18 -37 13 -15 32 -40 42 -55 9 -16 22 -25 28
-21 7 4 8 3 4 -5 -9 -14 103 -170 122 -171 6 0 11 -6 10 -12 -2 -7 2 -12 9
-11 7 2 10 -3 7 -10 -2 -7 15 -32 38 -56 24 -25 36 -40 28 -36 -13 8 -13 6 -1
-8 7 -9 18 -14 24 -10 5 3 7 1 4 -4 -8 -13 171 -239 185 -235 5 1 7 -1 5 -5
-3 -5 6 -22 20 -38 16 -19 27 -26 30 -17 2 6 9 12 15 12 6 0 3 -9 -7 -20 -16
-17 -16 -20 -2 -26 9 -3 25 -21 36 -40 11 -19 26 -33 33 -32 7 2 12 -4 11 -12
-1 -8 16 -35 38 -60 22 -25 38 -40 35 -33 -4 6 -2 14 3 18 6 3 8 -3 6 -14 -4
-22 80 -138 97 -133 5 1 7 -2 4 -7 -3 -5 10 -33 30 -63 20 -29 54 -83 75 -120
38 -65 70 -102 55 -63 -5 15 -4 16 9 5 16 -13 21 -35 6 -25 -17 10 -20 -10 -4
-35 8 -14 12 -17 9 -7 -4 11 -2 16 5 12 5 -4 7 -15 4 -24 -5 -18 17 -85 26
-77 2 2 5 -31 5 -75 1 -43 -2 -77 -6 -74 -4 2 -17 -9 -29 -25 -20 -27 -27 -30
-80 -30 -71 0 -133 21 -184 61 -21 17 -42 27 -50 23 -6 -4 -9 -4 -5 0 12 14
-16 35 -34 25 -19 -10 -27 -2 -23 23 2 10 -27 40 -79 81 -44 36 -101 86 -125
111 -27 27 -48 41 -52 35 -4 -7 -9 -5 -12 6 -4 9 -3 13 3 10 6 -3 10 -2 10 3
0 15 -56 63 -64 55 -4 -5 -6 -1 -4 7 2 9 -3 14 -12 12 -8 -2 -12 0 -7 4 4 4
-26 42 -66 83 -244 251 -301 311 -309 325 -5 9 -13 14 -19 11 -5 -4 -9 -1 -9
5 0 6 -28 41 -63 78 -35 37 -83 95 -107 129 -35 51 -46 60 -61 53 -12 -7 -21
-5 -30 8 -12 15 -12 15 1 5 9 -7 21 -8 29 -4 11 7 7 19 -18 55 -18 26 -36 44
-41 41 -5 -3 -12 0 -16 6 -4 8 -3 9 4 5 18 -11 14 10 -4 25 -8 7 -22 25 -30
41 -8 15 -21 28 -29 28 -8 0 -15 5 -15 11 0 5 6 7 13 3 6 -4 3 4 -9 17 -11 13
-35 48 -53 77 -18 28 -37 52 -42 52 -5 0 -8 6 -6 13 1 6 -4 11 -11 9 -8 -1
-11 2 -8 7 8 12 -7 22 -50 31 -24 6 -39 3 -56 -8 -13 -9 -24 -16 -25 -14 -7 6
-24 1 -19 -6 2 -4 -4 -9 -15 -9 -26 -2 -153 -87 -179 -120 -11 -14 -20 -23
-20 -19 0 3 -15 -11 -33 -31 -36 -42 -46 -89 -25 -126 7 -12 12 -26 13 -32 0
-5 8 -10 17 -10 9 0 20 -4 25 -8 4 -5 3 -7 -2 -5 -21 7 -18 -9 14 -65 19 -33
37 -54 43 -51 6 4 8 3 5 -3 -9 -14 42 -85 55 -77 6 4 9 1 6 -7 -3 -8 6 -24 19
-36 13 -13 22 -23 19 -23 -8 0 88 -135 127 -180 17 -19 35 -34 39 -33 4 2 7
-3 5 -10 -1 -6 4 -11 12 -9 16 3 41 -16 41 -31 0 -6 -6 -2 -14 9 -8 10 -18 16
-22 11 -9 -9 36 -58 48 -51 5 3 7 1 6 -4 -2 -5 8 -24 21 -42 18 -25 25 -29 32
-19 7 11 9 11 9 1 0 -7 5 -10 10 -7 6 3 10 1 10 -5 0 -7 -7 -10 -15 -6 -21 8
-19 -7 3 -27 10 -10 22 -14 27 -10 4 5 5 3 2 -4 -8 -12 38 -73 55 -73 6 0 4 8
-5 18 -10 10 -17 23 -17 28 0 5 5 1 11 -9 6 -9 14 -15 19 -12 5 3 11 1 14 -4
4 -5 2 -12 -4 -16 -6 -4 -7 -11 -4 -17 5 -7 2 -8 -6 -3 -7 4 13 -23 44 -61 32
-38 62 -68 67 -66 5 1 8 -4 7 -10 -2 -7 3 -12 10 -10 8 1 11 -2 7 -7 -3 -6 27
-41 67 -78 40 -37 105 -98 144 -136 39 -37 74 -64 79 -60 4 5 5 3 2 -3 -4 -6
10 -27 31 -46 20 -20 61 -63 90 -97 30 -34 58 -58 64 -55 7 4 8 2 4 -5 -9 -14
77 -102 96 -98 7 2 10 2 6 0 -5 -3 -8 -9 -8 -14 0 -6 5 -7 10 -4 6 3 10 2 10
-3 0 -10 85 -75 96 -72 4 1 11 -5 16 -14 5 -9 13 -14 19 -11 5 4 9 1 9 -4 0
-15 119 -73 132 -65 6 4 8 3 5 -3 -8 -13 65 -46 168 -74 59 -16 108 -21 199
-22 109 0 129 3 200 29 44 16 81 35 84 42 2 6 -1 12 -8 12 -6 0 -9 -4 -6 -8 3
-5 -1 -9 -8 -9 -8 0 -12 6 -9 14 6 16 25 17 41 1 9 -9 12 -9 12 0 0 7 6 12 14
12 8 0 16 3 18 8 2 4 27 22 56 41 46 29 51 36 40 50 -11 14 -11 14 4 3 14 -11
21 -11 43 4 21 14 23 19 13 33 -11 14 -11 14 4 3 14 -11 21 -8 52 19 39 34 73
77 78 99 2 8 8 20 15 27 6 7 21 41 33 77 17 54 20 80 16 172 -4 107 -28 226
-47 232 -5 2 -7 7 -4 12 7 11 -15 60 -27 60 -5 0 -7 4 -3 9 8 14 -16 61 -28
54 -6 -3 -7 -1 -3 5 10 16 -73 144 -87 135 -7 -3 -9 -3 -5 2 9 9 -19 65 -32
65 -6 0 -10 -6 -10 -13 0 -7 -9 -13 -19 -13 -16 0 -18 4 -10 18 6 10 7 24 4
31 -4 6 0 4 8 -6 8 -10 17 -14 20 -10 7 11 -109 184 -156 236 -19 20 -32 37
-30 37 3 0 0 7 -7 15 -7 8 -17 12 -23 8 -6 -3 -7 -1 -3 5 8 14 -81 135 -94
127 -5 -3 -11 -1 -15 5 -4 6 -10 8 -15 5 -5 -3 -14 4 -20 15 -8 14 -8 20 0 20
6 0 8 5 4 12 -5 7 -2 9 7 4 8 -4 4 2 -9 13 -13 11 -23 24 -23 28 0 4 -44 64
-98 133 -90 115 -129 161 -201 241 -14 15 -45 55 -68 88 -25 34 -48 58 -54 55
-6 -4 -8 -3 -5 3 9 14 -22 55 -35 47 -6 -4 -8 -2 -4 4 3 6 -15 37 -42 69 -26
32 -70 87 -97 122 -44 59 -49 62 -62 45 -12 -16 -13 -16 -13 -1 0 9 5 17 10
17 19 0 10 15 -27 45 -30 23 -49 30 -91 32 -47 1 -66 -5 -153 -49z"/>
<path fill="#28a6b8" d="M16003 17212 c5 -6 -1 -8 -14 -5 -11 3 -37 1 -57 -5 -47 -14 -239
-62 -247 -62 -3 0 -4 -4 -1 -8 2 -4 0 -14 -6 -22 -8 -12 -9 -12 -4 3 6 20 -2
21 -41 5 -30 -12 -38 -14 -66 -16 -11 -1 -15 -7 -11 -14 4 -7 3 -8 -4 -4 -14
8 -62 -3 -62 -15 0 -5 15 -6 33 -4 l32 5 -29 -10 c-19 -6 -34 -6 -41 0 -12 10
-66 -4 -111 -28 -11 -6 -38 -15 -61 -21 -24 -7 -43 -16 -43 -22 0 -6 -4 -8 -9
-5 -12 8 -153 -48 -144 -57 4 -5 0 -5 -9 -2 -12 5 -67 -14 -86 -30 -8 -7 12
-34 21 -28 6 3 7 1 3 -5 -10 -17 -26 -15 -26 2 0 23 -19 29 -38 14 -9 -8 -32
-20 -49 -28 -18 -7 -33 -16 -33 -21 0 -5 -3 -8 -7 -7 -16 3 -43 -15 -37 -24 4
-6 10 -5 15 3 6 10 9 10 9 2 0 -18 -19 -26 -34 -14 -10 8 -16 8 -25 -2 -6 -8
-8 -17 -5 -20 4 -4 -3 -4 -16 -2 -17 3 -20 1 -16 -12 6 -14 4 -14 -11 -2 -14
12 -16 12 -8 0 6 -11 4 -13 -8 -8 -10 3 -17 2 -17 -3 0 -6 -7 -10 -16 -10 -11
0 -14 -5 -10 -16 5 -13 4 -14 -7 -6 -8 7 -17 8 -23 2 -5 -5 -57 -38 -116 -73
-60 -35 -105 -67 -100 -71 4 -4 3 -6 -3 -5 -14 5 -105 -41 -105 -52 0 -5 -3
-8 -7 -7 -16 5 -123 -64 -117 -74 4 -7 2 -8 -4 -4 -14 9 -125 -61 -117 -73 3
-6 0 -13 -6 -17 -8 -4 -9 -3 -5 4 12 20 -3 13 -54 -25 -27 -20 -47 -41 -44
-45 3 -5 11 -2 17 6 8 11 17 13 27 6 13 -8 12 -12 -4 -27 -10 -10 -15 -12 -11
-4 6 10 4 13 -7 8 -9 -3 -20 -1 -26 5 -13 13 -79 -40 -107 -86 -22 -35 -15
-118 13 -155 21 -29 62 -61 83 -65 19 -4 88 -33 121 -51 17 -10 29 -12 33 -5
3 5 12 10 18 9 9 0 9 -2 0 -6 -21 -8 -15 -20 12 -27 14 -4 35 -1 46 5 17 9 20
8 14 -2 -6 -9 5 -11 51 -6 70 7 111 23 217 84 68 40 76 47 65 62 -12 14 -11
14 4 3 14 -12 25 -8 75 24 32 20 61 42 65 48 5 7 11 6 20 -5 16 -20 78 -63 78
-54 0 4 7 0 15 -9 20 -20 224 -129 242 -129 7 0 13 -4 13 -7 0 -8 55 -33 65
-31 3 1 13 -5 22 -14 8 -9 22 -14 30 -11 8 3 12 2 9 -2 -7 -12 63 -44 76 -36
6 4 8 2 5 -3 -8 -13 20 -26 35 -16 6 3 8 2 5 -3 -8 -13 220 -117 235 -108 6 4
8 3 4 -4 -3 -5 -3 -12 1 -15 5 -2 3 -2 -4 -1 -10 2 -27 -24 -23 -35 1 -2 -2
-7 -7 -10 -17 -11 -57 -75 -42 -66 7 4 2 -3 -12 -17 -15 -13 -52 -75 -83 -137
-63 -127 -72 -179 -35 -225 11 -14 25 -23 31 -20 7 4 8 2 4 -4 -7 -12 51 -53
114 -83 77 -35 182 -60 224 -54 32 5 38 4 26 -5 -13 -10 -13 -11 2 -7 9 3 33
9 52 13 22 4 33 10 29 17 -4 6 0 8 9 4 23 -8 65 41 87 103 10 30 36 90 56 133
31 67 34 81 23 95 -11 15 -11 16 4 4 14 -11 18 -9 32 19 9 17 13 36 9 42 -3 6
-1 7 5 3 6 -4 18 6 27 24 8 16 12 30 8 30 -5 0 0 5 10 11 9 5 17 15 17 20 0 6
-5 7 -12 3 -7 -5 -8 -3 -4 5 5 7 11 10 14 6 8 -7 72 107 66 117 -3 4 1 8 8 8
8 1 5 7 -7 16 -20 16 -20 16 1 10 19 -6 26 3 59 81 20 48 38 100 39 115 0 14
5 24 10 20 5 -3 7 5 4 16 -4 12 -3 20 1 17 11 -6 86 240 117 385 39 184 35
158 56 400 13 147 2 240 -37 306 -26 45 -72 87 -85 79 -4 -3 -10 2 -13 10 -8
19 -63 46 -172 83 -102 35 -182 51 -172 34z m-108 -532 c-3 -5 0 -10 7 -10 10
0 10 -2 0 -9 -11 -7 -12 -12 -1 -29 11 -17 6 -45 -33 -189 -37 -135 -73 -276
-93 -358 -1 -5 -5 -18 -9 -27 -4 -9 -9 -24 -10 -34 -2 -10 -12 -18 -24 -19
-12 -1 -19 1 -17 5 5 7 -84 52 -99 50 -5 -1 -12 2 -15 7 -3 5 -89 52 -191 105
-232 121 -270 141 -270 150 0 3 20 14 45 23 25 10 42 22 38 28 -3 6 -1 7 5 3
17 -10 185 65 170 76 -9 6 -6 7 7 4 19 -6 48 6 164 70 145 79 293 150 297 142
6 -10 24 -11 23 0 -2 12 1 22 7 22 3 0 2 -4 -1 -10z"/>
<path fill="#28a6b8" d="M10838 17095 c-2 -2 -88 -6 -193 -10 -104 -4 -203 -8 -220 -10 -16
-1 -65 -6 -109 -9 -43 -4 -120 -11 -170 -16 -121 -12 -216 -19 -364 -25 -118
-4 -288 -21 -302 -30 -13 -8 -216 -34 -313 -40 -129 -8 -175 -16 -341 -60 -77
-20 -174 -40 -215 -46 -42 -6 -87 -12 -101 -14 -14 -2 -77 -9 -140 -14 -63 -6
-140 -15 -170 -20 -30 -6 -116 -12 -190 -15 -74 -3 -204 -8 -288 -12 -113 -5
-158 -4 -175 5 -26 14 -80 3 -207 -42 l-65 -23 -11 -54 c-6 -30 -7 -57 -2 -58
5 -2 4 -10 -2 -17 -13 -15 -32 -294 -31 -452 1 -62 -4 -134 -10 -160 -15 -70
-16 -204 0 -231 7 -13 22 -27 34 -33 12 -5 42 -23 67 -39 25 -16 64 -38 86
-49 23 -11 44 -23 47 -28 5 -8 -76 -53 -173 -96 -80 -35 -116 -54 -231 -124
-35 -21 -102 -56 -148 -77 -47 -21 -107 -55 -135 -75 -28 -21 -67 -46 -86 -56
-19 -10 -53 -30 -75 -45 -49 -33 -192 -110 -205 -110 -5 0 -34 -16 -64 -35
-30 -19 -58 -35 -61 -35 -4 0 -48 -25 -98 -57 -51 -31 -117 -70 -147 -86 -30
-16 -80 -48 -110 -71 -30 -23 -68 -48 -83 -56 -15 -7 -45 -28 -65 -45 -20 -17
-77 -60 -127 -95 -49 -35 -97 -72 -106 -81 -9 -9 -45 -36 -80 -60 -35 -24 -88
-67 -117 -96 -29 -29 -57 -53 -62 -53 -5 0 -10 -3 -12 -8 -1 -4 -41 -40 -88
-81 -102 -88 -169 -159 -234 -246 -16 -22 -58 -73 -93 -112 -38 -44 -63 -82
-63 -96 0 -12 -9 -41 -20 -62 -48 -94 -110 -317 -110 -396 0 -18 -4 -46 -9
-63 -40 -130 -44 -166 -67 -581 -2 -44 -11 -114 -19 -156 -9 -50 -11 -94 -6
-125 4 -27 4 -78 1 -114 -6 -58 0 -107 17 -150 7 -17 33 -107 57 -195 9 -33
23 -74 31 -92 8 -17 15 -36 15 -42 0 -25 52 -167 88 -240 37 -74 149 -250 179
-279 7 -7 13 -17 13 -21 0 -4 31 -48 70 -97 38 -49 89 -114 112 -144 51 -68
288 -301 346 -340 38 -27 144 -79 322 -162 111 -51 194 -92 210 -105 9 -7 47
-29 85 -49 39 -20 77 -42 85 -49 21 -19 220 -115 236 -115 8 0 14 -4 14 -8 0
-5 28 -21 63 -36 34 -15 80 -36 102 -45 22 -10 56 -24 75 -31 19 -7 49 -18 65
-25 58 -24 155 -55 174 -55 11 0 22 -4 25 -9 4 -5 50 -23 104 -41 53 -17 106
-35 117 -40 31 -13 59 -23 73 -26 7 -1 32 -11 55 -22 23 -11 58 -23 77 -27 19
-4 44 -14 55 -21 11 -8 29 -14 42 -14 12 0 24 -4 28 -10 3 -5 67 -29 143 -54
166 -55 218 -73 252 -91 44 -22 93 -43 165 -70 39 -14 105 -45 149 -70 43 -25
82 -45 87 -45 5 0 9 -4 9 -10 0 -5 5 -10 12 -10 21 0 181 -114 237 -170 51
-51 118 -128 147 -169 6 -9 22 -41 34 -71 62 -151 90 -190 133 -190 26 0 35
-181 15 -299 -11 -62 -10 -72 5 -88 19 -22 58 -28 51 -9 -3 8 -13 13 -22 12
-12 -1 -18 8 -19 29 -2 28 -1 28 5 5 5 -14 13 -25 20 -25 6 0 17 -8 25 -19 11
-15 17 -17 36 -7 12 7 19 16 16 22 -4 5 -3 8 2 7 14 -4 54 23 48 33 -4 5 0 9
8 9 8 0 22 9 32 20 13 15 22 17 36 10 27 -15 69 -12 75 5 4 10 13 13 25 10 25
-8 48 32 24 42 -9 3 -21 17 -26 31 -8 20 -6 29 11 47 22 23 27 40 8 29 -7 -4
-8 -3 -4 5 4 6 12 8 18 5 6 -4 20 6 33 22 19 24 29 28 62 26 36 -3 43 1 77 40
21 24 46 52 55 63 10 11 29 54 41 95 13 41 32 88 43 103 16 24 20 50 23 153 4
106 1 133 -17 189 -11 36 -27 72 -35 80 -8 7 -14 16 -14 19 0 19 -71 103 -142
169 -96 88 -181 146 -277 189 -36 16 -78 35 -92 42 -16 8 -47 12 -79 9 -38 -3
-77 4 -149 26 -53 16 -111 32 -128 36 -36 7 -45 25 -12 25 25 0 59 17 59 30 0
6 -9 10 -20 10 -11 0 -20 5 -20 10 0 6 5 10 10 10 14 0 12 19 -3 34 -19 19
-36 23 -197 46 -80 11 -165 24 -190 30 -25 5 -99 21 -165 36 -112 24 -160 36
-325 79 -36 9 -121 39 -190 65 -69 27 -156 60 -195 75 -105 40 -420 193 -535
260 -36 20 -81 46 -100 57 -64 37 -185 112 -216 135 -17 13 -34 23 -38 23 -3
0 -29 16 -57 35 -28 19 -57 35 -64 35 -7 0 -25 14 -38 30 -14 17 -29 30 -33
30 -4 0 -42 28 -86 63 -43 34 -120 94 -171 134 -51 40 -99 78 -107 85 -9 7
-35 26 -58 42 -23 15 -44 36 -47 45 -6 21 -109 111 -126 111 -7 0 -26 12 -42
28 -21 19 -28 22 -24 10 5 -15 0 -18 -28 -18 -24 0 -35 -5 -35 -15 0 -26 -17
-17 -83 45 -35 33 -67 56 -71 52 -4 -4 -6 0 -4 8 1 8 -2 14 -7 13 -17 -3 -16
35 1 41 8 3 14 12 14 21 0 8 7 15 15 15 17 0 20 16 5 25 -5 3 -10 16 -10 29 0
12 -16 42 -36 65 -28 32 -42 41 -58 37 -12 -3 -27 -1 -35 3 -19 12 -53 1 -47
-15 3 -8 1 -14 -3 -14 -5 0 -12 7 -15 16 -3 8 -11 12 -16 9 -6 -4 -9 -1 -8 7
2 7 -3 12 -10 10 -8 -1 -11 1 -8 6 6 10 -30 72 -43 72 -5 0 -11 -8 -13 -18 -3
-10 -12 -19 -21 -19 -9 0 -14 4 -11 9 3 5 10 5 16 2 6 -4 9 -1 6 7 -3 8 2 20
11 27 14 12 13 13 -7 9 -19 -5 -21 -3 -11 9 9 11 9 14 0 14 -8 0 -6 10 6 30 9
17 25 30 35 30 26 0 28 12 8 53 -26 52 -58 77 -97 75 -18 -1 -35 1 -38 4 -4 4
-13 4 -20 2 -8 -3 -23 11 -37 35 -14 23 -28 38 -33 34 -4 -5 -5 0 -2 9 4 11 2
15 -7 12 -7 -3 -13 2 -13 10 0 8 4 13 9 10 4 -3 8 0 8 5 0 6 5 11 11 11 6 0
17 6 25 14 12 13 12 20 -5 53 -11 21 -29 61 -41 88 -12 28 -30 69 -41 91 -11
23 -21 51 -24 62 -2 11 -13 39 -25 62 -12 23 -19 48 -16 56 5 12 0 32 -35 140
-20 67 -30 269 -17 359 4 28 9 68 11 90 5 46 50 203 66 233 6 12 11 30 11 42
0 12 14 41 30 65 17 24 30 48 30 53 0 5 9 17 20 27 11 10 20 22 20 27 0 5 25
32 55 60 30 27 55 54 55 60 0 20 237 240 379 351 207 162 273 212 284 216 7 2
30 19 52 36 22 18 64 49 94 69 30 20 68 48 85 62 46 37 149 103 162 104 6 0
19 9 29 20 10 11 22 20 27 20 4 0 42 20 83 45 41 25 82 48 92 52 10 3 41 21
69 39 29 18 83 46 120 64 38 17 80 38 94 45 14 8 39 21 56 29 18 9 45 26 60
39 30 24 130 74 269 134 138 59 239 104 300 133 22 10 65 28 95 40 89 36 142
59 325 146 33 16 62 29 65 30 3 0 14 4 25 8 118 45 154 60 180 72 17 7 42 18
58 23 15 6 27 17 27 26 0 18 17 20 23 3 3 -10 7 -10 20 1 10 7 17 10 17 7 0
-4 14 2 30 14 17 12 30 27 30 35 0 7 10 15 22 18 24 7 41 -3 21 -10 -7 -3 -13
-9 -13 -14 0 -5 10 -3 23 6 13 8 26 13 28 10 3 -2 23 4 44 15 22 11 47 20 56
20 26 0 189 71 189 82 0 4 8 15 19 25 10 10 23 32 29 49 9 28 7 36 -20 69 -17
20 -40 41 -52 46 -11 5 -52 30 -91 55 -66 42 -306 164 -324 164 -5 0 -35 17
-67 38 -117 77 -169 109 -184 114 -14 5 -209 143 -237 168 -20 17 -15 30 10
31 12 1 33 3 47 4 47 5 195 14 320 21 69 3 150 10 180 16 30 5 62 10 70 10 8
0 49 4 90 9 41 5 113 11 160 15 101 6 230 28 320 53 129 36 217 51 335 57 66
3 131 7 145 10 14 3 41 8 60 10 19 2 46 8 60 14 39 14 190 29 350 35 196 6
323 15 395 25 33 5 92 12 130 15 39 4 88 8 110 10 74 7 399 19 465 17 36 0
315 -3 620 -5 305 -3 587 -7 625 -11 39 -4 116 -12 173 -18 l102 -11 0 -46 c0
-25 -7 -129 -15 -231 -9 -102 -18 -246 -20 -320 -3 -74 -11 -214 -17 -310 -6
-96 -12 -218 -13 -270 -1 -52 -4 -104 -8 -115 -3 -11 -9 -63 -12 -115 -4 -52
-10 -113 -15 -135 -5 -22 -9 -110 -9 -195 0 -86 -4 -168 -10 -182 -5 -14 -11
-90 -12 -169 -2 -161 -4 -199 -19 -314 -5 -44 -16 -163 -25 -265 -8 -102 -17
-214 -21 -250 -3 -36 -5 -77 -5 -92 2 -40 -17 -44 -52 -11 -54 51 -172 123
-200 123 -8 0 -20 7 -27 15 -7 9 -43 32 -79 52 -36 20 -73 42 -81 49 -8 6 -35
23 -60 37 -25 14 -79 45 -120 70 -133 81 -253 147 -266 147 -6 0 -14 7 -18 15
-3 8 -12 15 -19 15 -8 0 -22 9 -31 19 -36 40 -306 185 -446 240 -47 18 -94 38
-105 45 -44 26 -154 66 -220 80 -57 11 -75 11 -95 1 -14 -6 -56 -22 -95 -35
-38 -12 -80 -29 -92 -36 -12 -8 -29 -14 -36 -14 -12 0 -65 -21 -187 -73 -14
-6 -27 -11 -30 -11 -14 -2 -193 -95 -259 -134 -41 -24 -84 -48 -95 -53 -12 -5
-28 -13 -36 -18 -8 -6 -70 -37 -138 -70 -68 -33 -138 -71 -155 -83 -59 -41
-263 -252 -302 -313 -21 -33 -47 -72 -57 -88 -24 -35 -56 -109 -73 -167 -11
-39 -22 -133 -30 -265 -3 -48 12 -182 24 -210 21 -49 32 -79 56 -151 14 -42
35 -88 45 -102 11 -13 20 -29 20 -35 0 -5 15 -26 33 -47 77 -87 123 -143 136
-163 25 -40 128 -118 259 -195 39 -24 72 -47 72 -52 0 -6 7 -10 15 -10 8 0 29
-13 47 -28 48 -40 172 -119 253 -159 52 -26 95 -51 175 -100 103 -63 160 -93
175 -93 8 0 45 -16 82 -37 38 -20 77 -38 88 -39 27 -4 128 -40 157 -55 12 -7
32 -14 43 -16 11 -2 54 -10 95 -18 41 -7 136 -23 210 -35 212 -33 387 -66 486
-93 100 -26 154 -26 154 3 0 10 7 23 15 30 8 7 12 16 9 22 -3 5 0 15 6 23 19
23 4 44 -47 68 -27 11 -50 22 -53 22 -3 1 -26 11 -52 23 -64 28 -145 52 -180
52 -16 0 -37 4 -46 9 -9 5 -57 11 -107 15 -49 3 -151 17 -226 30 -75 14 -154
27 -175 30 -22 2 -68 14 -102 25 -34 12 -66 21 -72 21 -6 0 -30 8 -53 18 -23
11 -78 33 -122 51 -44 17 -111 52 -150 76 -38 24 -97 58 -130 75 -33 17 -82
44 -110 61 -27 16 -57 32 -65 36 -17 7 -122 75 -130 84 -8 10 -183 124 -213
139 -31 15 -164 143 -240 229 -46 52 -56 78 -38 96 9 10 42 67 67 115 30 57
143 177 268 283 27 23 63 55 80 70 17 15 49 40 71 55 22 15 48 34 58 43 26 24
333 175 395 194 62 20 68 21 152 30 36 3 78 10 93 15 24 8 33 5 66 -25 21 -19
46 -35 56 -35 51 0 223 -123 385 -275 87 -82 192 -161 311 -236 46 -28 113
-71 149 -94 36 -23 85 -53 110 -66 25 -13 47 -27 50 -30 3 -3 21 -14 40 -24
58 -30 334 -197 355 -215 11 -10 36 -26 55 -35 19 -10 64 -40 99 -67 35 -26
70 -48 77 -48 8 0 14 -4 14 -9 0 -18 65 -18 107 1 48 21 73 59 73 110 0 18 10
76 21 128 12 54 23 141 24 200 4 132 13 310 25 464 7 93 14 129 34 170 32 65
48 119 41 137 -2 8 4 129 15 269 12 140 27 334 35 430 12 162 21 340 30 617 2
62 6 117 9 122 5 8 16 131 31 361 2 30 8 118 14 195 11 138 14 190 27 475 3
80 10 152 15 161 5 9 8 43 7 75 0 33 4 85 11 118 7 32 10 69 7 81 -3 13 -1 25
5 27 12 4 15 128 4 176 -5 25 -16 37 -43 49 -45 20 -136 41 -179 42 -17 1 -35
6 -38 11 -4 6 -22 10 -40 8 -18 -1 -41 5 -51 13 -9 7 -25 13 -35 11 -10 -2
-37 2 -61 9 -31 8 -149 11 -413 9 -554 -5 -605 -5 -802 1 -101 3 -184 5 -185
4z"/>
<path fill="#28a6b8" d="M2922 17049 c-42 -21 -51 -33 -32 -44 6 -3 10 -11 10 -17 0 -5 -8 -1
-17 11 l-18 22 -83 -41 c-63 -32 -82 -45 -78 -57 5 -13 4 -13 -8 -4 -11 9 -17
9 -28 -2 -7 -8 -24 -19 -36 -26 -12 -7 -20 -16 -17 -21 3 -6 0 -8 -7 -5 -7 3
-26 -7 -43 -22 -16 -16 -33 -28 -37 -28 -4 0 -16 -7 -26 -15 -10 -8 -23 -16
-28 -17 -15 -2 -94 -49 -92 -54 2 -2 1 -3 -1 -2 -8 5 -121 -58 -121 -68 0 -5
-4 -8 -9 -4 -13 8 -207 -111 -203 -125 1 -6 -2 -9 -8 -5 -5 3 -36 -11 -67 -31
-72 -45 -68 -41 -54 -58 9 -11 9 -16 -1 -22 -7 -4 -10 -4 -6 1 4 4 3 14 -3 21
-9 11 -18 8 -50 -13 -31 -20 -38 -31 -35 -49 4 -19 -2 -28 -23 -38 -23 -12
-28 -12 -28 -1 0 7 7 11 15 7 9 -3 13 -1 9 5 -4 6 0 14 9 17 8 3 13 10 9 16
-3 5 -29 -6 -60 -26 -38 -26 -52 -41 -48 -52 4 -14 3 -14 -5 -3 -8 11 -22 5
-76 -33 -37 -26 -64 -51 -61 -57 4 -5 2 -9 -3 -9 -17 0 -52 -78 -52 -119 0
-32 4 -41 18 -41 12 0 14 -2 4 -8 -10 -7 -8 -15 9 -35 11 -15 25 -25 30 -22 5
4 6 0 4 -8 -7 -16 138 -157 185 -181 8 -4 26 -13 40 -21 30 -18 64 -19 93 -4
29 15 57 45 50 53 -4 3 1 6 11 6 9 0 19 7 23 16 3 9 13 19 22 22 35 14 210
126 206 132 -2 3 6 6 17 6 13 0 32 -16 50 -41 17 -22 34 -39 39 -38 5 2 8 0 6
-5 -1 -4 3 -7 8 -7 5 0 9 4 7 8 -1 5 2 6 7 3 5 -4 12 -2 16 4 3 5 12 10 18 10
7 0 4 -6 -5 -14 -10 -7 -14 -17 -10 -21 4 -5 2 -5 -5 -1 -19 11 -26 -14 -9
-32 9 -9 41 -48 71 -86 30 -39 61 -74 70 -78 8 -5 15 -13 15 -18 0 -5 43 -61
96 -125 84 -100 99 -114 113 -103 14 12 14 11 2 -4 -12 -16 -8 -24 35 -75 27
-32 90 -100 139 -152 50 -52 110 -116 135 -142 25 -26 64 -70 88 -98 24 -29
48 -48 54 -45 7 4 8 2 4 -4 -8 -13 110 -142 127 -139 7 1 11 -5 10 -14 -4 -21
232 -253 248 -243 7 4 10 3 6 -3 -7 -11 43 -59 56 -55 5 1 6 -1 3 -6 -7 -12
128 -144 139 -135 4 4 5 3 2 -3 -8 -14 84 -116 108 -120 10 -2 15 3 11 11 -3
9 0 12 8 9 11 -4 45 11 100 43 4 3 3 9 -4 13 -8 5 -7 9 5 13 9 4 13 3 10 -3
-13 -21 18 -8 75 31 34 23 57 45 53 51 -4 7 -1 8 6 3 18 -10 66 36 49 47 -9 6
-5 7 8 3 17 -4 30 4 59 37 20 24 45 59 55 79 l18 35 -105 112 c-86 92 -109
112 -127 107 -15 -5 -17 -4 -8 3 11 7 8 15 -15 38 -15 16 -32 28 -36 26 -5 -1
-6 1 -3 6 7 12 -38 54 -48 45 -4 -5 -6 -3 -4 3 4 15 -91 126 -102 119 -4 -3
-7 1 -6 8 2 18 -85 117 -97 110 -6 -3 -7 -1 -3 5 3 5 -6 25 -20 42 -21 24 -29
28 -36 18 -7 -9 -8 -8 -4 5 4 13 -16 40 -74 100 -44 45 -79 78 -78 72 2 -5 -1
-10 -7 -10 -5 0 -8 6 -7 13 4 17 -17 44 -28 37 -5 -3 -12 0 -16 6 -4 8 -3 9 4
5 22 -13 12 10 -13 34 -14 13 -25 18 -25 11 0 -7 -5 -9 -11 -5 -8 4 -7 9 2 15
10 6 9 12 -5 28 -19 21 -42 29 -31 11 10 -16 -1 -12 -15 6 -8 8 -9 14 -4 13
21 -4 23 2 5 24 -89 106 -133 159 -174 214 -27 34 -53 63 -58 63 -6 0 -8 -4
-4 -9 3 -5 1 -12 -4 -15 -5 -4 -12 -2 -16 4 -4 6 -10 8 -15 5 -4 -3 -6 5 -2
17 5 19 6 20 12 4 5 -15 8 -16 18 -4 9 12 2 25 -36 66 -27 29 -46 52 -43 52 3
0 -10 16 -29 35 -33 34 -59 48 -44 23 4 -7 3 -8 -5 -4 -9 6 -9 11 -1 21 9 11
7 17 -9 27 -12 7 -21 18 -21 25 0 7 -6 16 -13 20 -7 4 -23 23 -36 41 -13 19
-27 29 -34 26 -7 -4 -9 -4 -5 1 11 11 -11 47 -24 39 -7 -4 -8 -3 -4 4 8 13
-22 64 -34 57 -5 -3 -6 4 -3 15 3 13 29 33 64 50 31 16 60 34 64 40 3 6 11 8
16 5 5 -4 9 -1 9 4 0 15 -37 14 -43 -1 -4 -10 -6 -10 -6 0 -1 7 9 16 22 21 33
13 42 11 39 -5 -2 -10 18 -3 65 22 83 45 81 43 63 54 -11 7 -12 10 -2 10 7 0
10 5 6 12 -4 7 -3 8 5 4 6 -4 9 -12 6 -17 -4 -5 1 -9 10 -9 21 0 98 73 135
128 28 43 40 99 23 116 -4 3 -8 12 -9 19 -4 25 -86 157 -95 152 -5 -4 -6 2 -2
11 5 13 3 16 -10 11 -11 -4 -14 -2 -10 9 3 7 0 14 -6 14 -6 0 -11 6 -11 13 0
20 -47 60 -60 52 -6 -4 -9 -1 -8 7 2 7 -5 12 -14 12 -10 -1 -16 1 -14 5 11 17
-92 9 -132 -10z"/>
<path fill="#28a6b8" d="M16936 16787 c-22 -5 -54 -25 -75 -46 -40 -40 -135 -226 -125 -243 4
-6 3 -8 -4 -4 -9 6 -33 -45 -31 -68 0 -5 -3 -12 -8 -15 -15 -10 -42 -88 -69
-195 -43 -176 -53 -531 -15 -544 5 -2 7 -11 4 -19 -5 -12 -2 -15 10 -10 9 3
17 2 17 -3 0 -6 -4 -10 -9 -10 -11 0 -2 -38 11 -46 6 -4 13 -2 17 4 4 7 11 4
19 -8 10 -16 9 -18 -8 -15 -19 4 -19 2 -4 -21 15 -23 15 -26 -17 -76 -19 -29
-33 -56 -32 -60 2 -5 -1 -8 -6 -8 -5 0 -20 -14 -32 -31 -18 -26 -19 -33 -8
-41 11 -8 11 -9 -3 -5 -12 4 -30 -13 -65 -60 -26 -36 -47 -70 -46 -75 2 -4 -1
-8 -6 -8 -21 0 -167 -241 -154 -254 4 -3 1 -6 -4 -6 -13 0 -85 -127 -81 -143
1 -7 -3 -22 -10 -34 -17 -32 -11 -68 18 -99 30 -31 67 -53 55 -32 -4 7 1 4 12
-7 11 -11 42 -31 69 -45 27 -14 52 -29 55 -34 4 -5 12 -5 19 -1 8 5 11 4 6 -3
-3 -6 4 -13 16 -17 13 -4 41 -15 63 -25 22 -11 61 -25 88 -32 42 -11 51 -10
82 6 31 17 95 96 78 96 -5 0 -3 4 2 8 25 18 46 52 40 62 -6 9 -9 9 -15 1 -5
-9 -10 -8 -18 2 -9 11 -8 13 6 12 9 0 22 -4 29 -8 11 -7 133 151 133 172 0 6
9 15 20 21 11 6 18 15 15 19 -3 5 2 11 10 15 8 3 15 12 15 20 0 8 4 16 8 18
13 5 72 95 72 110 -1 8 -6 6 -15 -6 -8 -11 -15 -15 -15 -9 0 6 7 16 15 23 8 7
12 16 9 21 -3 5 2 6 11 2 13 -5 14 -7 3 -14 -9 -6 -10 -9 -1 -9 16 0 45 55 35
65 -4 5 -2 5 4 2 7 -4 23 10 38 33 28 42 32 55 16 45 -5 -3 -10 -2 -10 4 0 6
-8 8 -17 4 -14 -4 -15 -3 -7 6 8 8 18 9 37 2 26 -10 93 -4 82 7 -10 10 -44 9
-38 -1 3 -6 1 -7 -6 -3 -19 12 -2 26 29 24 16 -1 27 -6 24 -10 -12 -19 56 -36
149 -37 113 -2 158 9 177 44 7 14 15 23 18 20 3 -2 -1 -11 -8 -20 -10 -12 -2
-11 36 5 68 29 210 107 229 126 8 8 15 12 15 8 0 -4 9 1 20 11 11 10 17 22 13
28 -3 6 -1 7 6 3 7 -5 29 8 55 32 29 27 40 42 31 46 -7 2 -12 13 -10 23 2 10
4 20 4 23 1 2 7 -2 13 -8 10 -10 10 -15 -2 -22 -13 -8 -12 -10 3 -10 20 0 101
82 154 159 21 29 54 72 74 95 76 88 82 102 76 171 -7 99 -36 139 -146 204 -49
29 -94 53 -98 53 -4 0 -14 5 -22 11 -7 6 -20 12 -28 13 -8 2 -23 10 -33 19
-11 10 -24 14 -31 9 -8 -4 -10 -3 -5 4 4 7 1 12 -8 12 -9 0 -16 -4 -16 -10 0
-5 -5 -10 -11 -10 -5 0 -7 5 -4 10 15 24 -34 7 -61 -21 -16 -17 -41 -42 -56
-56 -16 -15 -28 -30 -28 -35 0 -5 -16 -25 -35 -45 -20 -20 -33 -43 -31 -50 3
-7 2 -12 -2 -10 -12 3 -195 -170 -185 -175 4 -3 2 -3 -5 -1 -8 2 -26 -5 -40
-15 -37 -26 -149 -54 -196 -50 -35 3 -42 8 -63 47 -52 98 -11 342 87 516 11
20 17 41 14 47 -4 6 -3 8 3 5 5 -3 22 20 37 51 23 48 27 68 24 118 -5 66 -13
88 -30 78 -6 -4 -8 -2 -5 3 4 6 0 16 -8 23 -8 7 -15 9 -15 4 0 -5 -4 -4 -8 1
-12 17 -75 61 -127 88 -37 20 -51 24 -57 14 -5 -8 -8 -7 -8 4 0 18 -33 31 -57
22 -12 -5 -12 -7 -1 -14 11 -7 11 -9 0 -9 -7 0 -20 7 -28 15 -14 13 -13 15 3
15 15 1 15 2 3 9 -27 15 -74 18 -114 8z"/>
<path fill="#28a6b8" d="M3337 13738 c-18 -14 -23 -52 -13 -103 7 -39 41 -127 47 -121 2 2 4
-5 5 -17 0 -12 11 -69 23 -127 20 -92 21 -113 11 -165 -6 -33 -20 -75 -31 -94
-16 -27 -17 -36 -7 -49 10 -12 10 -14 1 -8 -8 4 -13 2 -13 -6 0 -10 -2 -10 -9
1 -5 7 -13 11 -18 8 -6 -4 -13 22 -17 62 -8 92 -17 132 -27 125 -5 -3 -6 2 -3
11 7 18 -62 165 -77 165 -6 0 -8 4 -5 8 3 5 -3 20 -12 34 -45 67 -57 85 -75
105 -11 12 -24 20 -30 16 -6 -3 -7 -1 -3 5 8 13 -33 44 -47 35 -6 -3 -7 -1 -3
5 9 15 -54 51 -108 61 -56 10 -112 0 -132 -26 -9 -10 -12 -12 -9 -5 12 24 -26
-2 -67 -45 -56 -58 -82 -118 -86 -196 -5 -84 5 -160 20 -151 7 4 8 2 4 -4 -9
-15 51 -141 70 -149 8 -3 12 -9 9 -14 -11 -17 150 -166 215 -199 142 -72 309
-99 408 -66 32 11 50 22 46 28 -4 6 -2 8 3 5 6 -4 21 2 34 12 19 16 21 21 11
34 -9 10 -10 17 -2 22 6 3 8 10 6 14 -3 4 4 8 15 8 20 2 20 2 0 -15 -17 -14
-18 -19 -7 -29 11 -9 22 0 56 45 24 31 57 86 74 122 28 59 31 74 31 160 0 95
-28 235 -45 225 -4 -3 -11 2 -14 11 -4 9 -2 13 5 8 25 -15 -40 135 -72 167
-11 11 -16 19 -11 19 11 0 -71 70 -83 70 -5 0 -19 3 -30 6 -11 3 -28 -1 -38
-8z m-341 -226 c-3 -2 -1 -15 5 -29 6 -16 6 -22 -1 -18 -6 3 -10 1 -10 -4 0
-13 24 -38 60 -64 21 -15 21 -16 3 -7 -22 10 -22 10 -5 -20 9 -16 21 -30 25
-30 5 0 5 -4 2 -10 -3 -5 -1 -10 4 -10 6 0 10 -3 9 -7 -1 -5 10 -46 24 -93 15
-47 37 -118 48 -158 12 -40 25 -70 30 -67 6 4 7 -2 3 -11 -4 -11 -8 -13 -11
-6 -2 7 -8 10 -13 7 -5 -4 -6 1 -3 9 4 12 0 16 -15 16 -12 0 -35 7 -52 15 -16
9 -35 13 -41 9 -6 -4 -8 -3 -5 3 4 6 -4 14 -18 17 -13 3 -48 30 -78 59 -72 70
-101 142 -100 252 0 104 2 111 29 126 18 9 30 9 63 -5 37 -14 41 -14 41 0 0 8
-4 13 -8 10 -5 -3 -9 1 -9 8 0 7 6 13 14 13 7 0 11 -2 9 -5z"/>
<path fill="#28a6b8" d="M4120 13690 c-5 -8 -10 -12 -10 -7 0 4 -10 -3 -21 -14 -59 -59 -143
-364 -185 -669 -22 -158 -25 -635 -6 -820 22 -216 77 -524 91 -516 3 2 6 -11
7 -28 1 -51 83 -295 108 -318 11 -12 15 -18 8 -14 -7 4 -3 -12 10 -38 12 -25
26 -42 31 -39 6 3 7 1 3 -5 -7 -12 13 -62 25 -62 4 0 11 -9 14 -20 4 -11 22
-36 41 -54 38 -37 76 -39 95 -4 11 20 -6 132 -19 124 -4 -2 -8 6 -8 17 -3 44
-47 176 -57 170 -6 -3 -7 -1 -3 6 4 6 -8 75 -28 154 -85 342 -110 564 -110
967 0 247 3 329 19 430 10 69 19 139 21 155 1 17 3 30 4 30 6 0 68 270 63 278
-4 6 -1 7 7 2 10 -6 12 -4 7 8 -3 10 -2 17 3 17 8 0 42 87 48 125 8 56 -8 103
-47 132 -23 17 -100 12 -111 -7z"/>
<path fill="#28a6b8" d="M1603 12784 c-13 -3 -23 -10 -23 -15 0 -6 5 -7 12 -3 7 4 8 3 4 -5
-6 -9 -11 -9 -24 1 -13 11 -15 10 -9 -4 3 -10 1 -20 -5 -24 -6 -4 -8 -3 -4 4
14 23 -12 20 -34 -3 -19 -20 -20 -25 -7 -25 9 0 19 -4 22 -10 4 -6 -6 -7 -25
-4 -23 5 -30 3 -30 -9 0 -9 5 -19 10 -22 13 -8 3 -25 -13 -25 -8 0 -8 3 2 9
10 6 10 10 1 16 -13 8 -20 3 -24 -17 -2 -7 -8 -26 -14 -41 -17 -41 -15 -71 9
-116 24 -46 44 -65 59 -56 6 4 9 1 8 -6 -2 -6 11 -16 29 -21 18 -4 35 -13 38
-18 9 -15 38 -12 29 3 -4 6 2 3 14 -7 25 -21 31 -36 7 -16 -8 7 -15 8 -15 3 0
-6 24 -26 54 -45 41 -27 57 -33 67 -24 9 8 10 8 4 -2 -8 -16 24 -44 43 -37 7
3 11 1 7 -4 -3 -5 16 -17 42 -27 27 -10 48 -16 49 -14 0 3 8 -3 18 -13 10 -9
22 -15 27 -12 5 4 9 1 9 -4 0 -13 149 -85 300 -146 97 -39 107 -46 126 -83 12
-23 23 -39 26 -37 2 2 4 -4 5 -13 1 -9 9 -39 19 -67 32 -93 81 -119 129 -70
25 24 36 73 13 59 -7 -4 -8 -3 -4 5 4 6 12 9 17 6 5 -4 9 6 9 20 0 14 -4 24
-8 21 -4 -2 -9 5 -9 17 -2 15 0 18 6 8 7 -10 10 -10 13 -1 4 14 91 -16 338
-117 176 -71 218 -85 232 -77 7 4 8 3 4 -4 -9 -15 185 -75 242 -75 33 0 49 6
73 29 18 17 28 36 25 46 -2 10 0 18 5 18 14 0 11 24 -7 46 -14 18 -15 18 -9
-6 5 -19 4 -22 -4 -10 -6 8 -8 22 -6 31 9 28 -48 53 -142 61 -7 1 -13 4 -13 8
0 3 -15 14 -34 22 -26 13 -36 14 -45 5 -9 -9 -11 -9 -7 3 4 10 -7 23 -30 38
-30 20 -38 21 -52 10 -15 -11 -15 -11 -4 3 10 14 6 20 -28 43 -23 15 -46 24
-52 20 -7 -4 -8 -3 -4 4 7 11 -7 17 -29 12 -5 -1 -7 2 -3 6 7 6 -82 74 -144
110 -10 6 -25 20 -32 30 -11 15 -17 16 -29 6 -11 -9 -17 -10 -22 -2 -4 6 -3 9
2 8 4 -2 8 2 8 7 0 6 -4 9 -8 7 -5 -1 -6 1 -3 6 7 12 -70 85 -94 89 -11 1 -20
-2 -20 -8 0 -5 -5 -7 -11 -3 -8 5 -8 9 1 14 9 6 8 15 -4 39 -23 43 -13 39 13
-5 31 -52 35 -37 6 21 -14 26 -25 59 -25 72 0 13 -5 23 -12 23 -6 0 -8 3 -4 7
18 18 99 -2 213 -53 68 -30 129 -51 135 -48 7 5 8 2 3 -6 -6 -10 -4 -12 8 -7
9 3 18 1 20 -6 2 -7 24 -12 57 -11 30 0 45 -2 35 -6 -16 -6 -14 -8 10 -12 92
-17 233 -3 236 23 1 5 2 13 3 19 1 11 37 39 51 40 6 0 -1 -8 -15 -18 -23 -15
-38 -42 -25 -42 3 0 24 18 46 40 32 31 39 45 34 62 -5 17 -4 19 3 9 17 -24 35
65 28 138 -5 60 -19 87 -38 75 -4 -3 -5 2 -1 11 5 13 7 14 14 3 17 -26 9 2
-12 42 -19 36 -29 45 -52 41 -4 0 -6 4 -5 11 2 6 -5 14 -16 16 -13 3 -16 0
-11 -10 5 -7 4 -10 -1 -5 -5 5 -9 13 -9 19 0 20 -38 17 -56 -5 -20 -24 -25
-42 -9 -32 6 3 10 1 10 -5 0 -7 -8 -9 -19 -5 -14 4 -20 -1 -25 -20 -6 -24 9
-109 24 -130 3 -5 6 -17 6 -25 -1 -12 -14 -15 -61 -14 -61 0 -108 7 -135 17
-85 34 -296 107 -338 118 -105 26 -229 -27 -282 -122 -20 -35 -25 -57 -24
-109 1 -67 33 -160 54 -160 6 0 9 -4 6 -8 -6 -9 60 -93 101 -130 19 -17 23
-26 14 -35 -8 -8 -11 -8 -11 2 0 7 -4 9 -10 6 -5 -3 -10 -2 -10 3 0 5 -28 17
-61 27 -43 12 -63 22 -66 36 -3 10 -10 16 -16 12 -6 -3 -7 -1 -3 6 8 13 -30
81 -45 81 -6 0 -8 4 -5 8 5 9 -40 82 -50 82 -3 0 -3 -4 1 -9 3 -5 1 -12 -4
-16 -6 -3 -8 4 -6 16 6 29 -51 103 -73 94 -12 -4 -12 -2 -4 8 9 11 6 19 -11
35 -13 12 -27 19 -32 15 -4 -5 -5 0 -2 9 4 12 -13 34 -60 77 -37 33 -70 58
-74 56 -4 -3 -10 2 -13 11 -4 9 -13 14 -22 10 -8 -3 -12 -2 -9 3 5 9 -32 27
-47 23 -5 -1 -8 2 -8 6 0 7 -37 30 -60 37 -3 1 -23 10 -45 20 -40 18 -230 30
-282 19z m213 -254 c32 -12 64 -22 71 -23 7 0 10 -4 7 -8 -2 -4 5 -11 17 -14
12 -4 42 -20 67 -36 25 -16 49 -26 55 -22 6 3 7 1 3 -5 -8 -13 33 -44 47 -35
6 3 7 1 4 -4 -4 -6 12 -30 35 -53 40 -40 41 -42 23 -53 -24 -14 -57 -18 -49
-6 2 4 11 6 18 3 8 -3 17 -1 20 4 6 11 -38 33 -56 28 -7 -1 -9 -1 -5 2 5 2
-29 19 -75 38 -46 19 -100 43 -121 54 -22 11 -44 17 -49 13 -6 -3 -9 -2 -5 3
3 5 -26 26 -64 46 -39 21 -67 32 -63 25 3 -6 -8 4 -24 23 -23 25 -28 37 -19
43 18 12 96 1 163 -23z"/>
<path fill="#28a6b8" d="M1590 12071 c-28 -18 -29 -22 -41 -103 -6 -36 -5 -68 2 -85 20 -55
92 -172 102 -166 6 3 7 1 3 -6 -4 -6 5 -33 21 -59 16 -26 35 -66 42 -89 8 -23
18 -40 22 -38 4 3 11 0 15 -6 4 -8 3 -9 -4 -5 -15 9 -15 7 4 -45 28 -79 74
-271 86 -361 9 -71 9 -102 -1 -151 -17 -81 -18 -86 -30 -127 -17 -53 -13 -79
14 -105 19 -20 31 -24 61 -20 20 2 47 14 59 25 36 34 84 140 94 209 18 113 25
286 13 320 -9 26 -9 33 3 38 8 3 12 10 8 16 -3 6 -1 7 5 3 6 -4 9 -13 6 -20
-4 -9 15 -19 63 -31 37 -10 77 -19 88 -20 11 -1 27 -5 35 -9 39 -15 356 -86
368 -81 7 2 11 1 8 -3 -6 -11 220 -66 240 -58 8 3 13 2 9 -3 -6 -10 42 -22
195 -46 58 -9 197 -32 308 -51 112 -19 216 -34 230 -34 27 0 87 33 87 47 1 5
6 18 13 31 16 28 11 68 -7 64 -9 -2 -12 4 -8 18 7 29 -26 58 -88 75 -89 24
-321 76 -331 74 -5 -1 -16 1 -24 4 -19 8 -339 70 -365 71 -11 1 -22 3 -25 6
-3 3 -39 14 -80 24 -41 10 -120 31 -175 46 -142 40 -169 45 -160 30 5 -9 4
-11 -4 -6 -6 4 -9 11 -7 15 10 15 -458 127 -494 118 -9 -2 -17 1 -17 7 0 6
-17 50 -37 96 -21 47 -52 124 -69 172 -17 48 -34 85 -39 82 -4 -3 -6 -17 -3
-32 5 -26 5 -26 -5 -3 -7 17 -7 28 1 38 9 10 8 23 -6 53 -10 22 -22 37 -28 33
-6 -4 -7 -1 -2 6 4 7 -2 22 -16 37 -18 19 -32 24 -68 23 -25 -1 -57 -9 -71
-18z"/>
<path fill="#28a6b8" d="M11834 11760 c-24 -9 -64 -56 -64 -75 0 -38 37 -57 185 -95 83 -21
165 -44 183 -50 18 -7 39 -10 47 -6 8 3 17 2 19 -3 3 -4 40 -15 83 -25 43 -10
94 -24 113 -31 19 -8 49 -16 65 -20 31 -6 288 -85 365 -112 25 -8 68 -21 95
-28 28 -6 75 -24 106 -39 31 -14 63 -26 72 -26 9 0 19 -4 22 -10 6 -10 106
-60 120 -60 14 0 426 -203 515 -254 25 -14 54 -30 65 -35 31 -14 286 -187 415
-281 134 -98 263 -209 396 -341 45 -45 68 -63 112 -85 8 -4 25 6 42 27 25 29
29 43 30 91 0 53 -2 58 -32 80 -18 12 -44 35 -57 51 -13 15 -36 34 -52 43 -16
8 -29 21 -29 28 0 8 -19 29 -42 48 -24 18 -47 38 -53 44 -5 6 -26 21 -47 33
-20 12 -38 28 -42 36 -3 8 -34 33 -71 55 -36 23 -65 46 -65 51 0 5 -19 21 -42
36 -24 15 -45 30 -48 33 -17 18 -149 110 -159 110 -6 0 -11 4 -11 9 0 5 -9 12
-19 16 -11 3 -39 21 -63 40 -23 19 -49 35 -55 35 -7 0 -13 3 -13 8 0 4 -19 16
-43 27 -23 11 -60 32 -81 47 -21 16 -43 28 -48 28 -8 0 -270 128 -323 159 -16
9 -50 25 -75 35 -25 10 -72 31 -105 46 -124 58 -172 78 -260 105 -49 15 -99
32 -111 37 -11 5 -36 11 -55 12 -19 2 -44 8 -56 14 -33 18 -172 62 -212 67
-20 2 -56 9 -81 14 -25 5 -83 17 -130 26 -47 9 -93 21 -103 26 -29 16 -247 59
-317 63 -36 2 -75 0 -86 -4z"/>
<path fill="#28a6b8" d="M14978 10065 c-63 -43 -64 -113 -2 -152 20 -13 39 -23 43 -23 17 0
72 69 70 86 -2 11 0 24 4 31 10 16 -17 69 -38 77 -27 10 -39 7 -77 -19z"/>
<path fill="#28a6b8" d="M15295 9750 c-4 -6 -15 -8 -24 -5 -11 3 -28 -5 -45 -22 -25 -25 -26
-31 -20 -82 4 -31 14 -67 24 -81 32 -46 111 -224 142 -319 45 -141 57 -192 64
-280 8 -94 -18 -363 -46 -486 -5 -22 -11 -58 -14 -80 -18 -163 -29 -244 -37
-271 -5 -17 -9 -55 -9 -86 0 -72 -54 -357 -81 -428 -11 -30 -29 -82 -39 -115
-31 -102 -46 -139 -99 -237 -28 -52 -57 -113 -65 -135 -19 -54 -84 -188 -115
-238 -37 -59 -106 -189 -153 -285 -22 -47 -54 -105 -70 -128 -22 -32 -27 -47
-19 -55 6 -6 11 -15 11 -21 0 -5 -6 -2 -13 9 -13 17 -16 15 -45 -27 -17 -25
-28 -49 -24 -53 4 -5 2 -5 -5 -1 -13 7 -40 -31 -34 -49 1 -5 0 -7 -4 -3 -13
12 -62 -13 -100 -52 -38 -39 -65 -95 -65 -136 0 -11 -9 -29 -20 -39 -12 -10
-18 -25 -15 -32 2 -8 1 -12 -4 -8 -5 3 -21 -9 -35 -27 -19 -25 -28 -30 -37
-21 -24 24 -72 -6 -178 -115 -58 -60 -122 -120 -142 -134 -19 -15 -73 -61
-118 -102 -46 -42 -149 -127 -229 -190 -81 -63 -167 -131 -192 -151 -74 -59
-280 -214 -401 -302 -63 -45 -132 -96 -154 -113 -22 -16 -58 -42 -80 -57 -22
-15 -44 -33 -48 -40 -4 -7 -13 -13 -18 -13 -6 0 -45 -27 -87 -60 -42 -33 -113
-87 -157 -120 -44 -33 -138 -105 -210 -158 -106 -81 -373 -265 -444 -307 -9
-5 -40 -27 -68 -48 -28 -20 -55 -37 -61 -37 -5 0 -15 -7 -22 -15 -14 -17 -182
-134 -300 -209 -83 -52 -156 -104 -215 -153 -38 -32 -39 -34 -27 -65 6 -17 11
-32 9 -32 -17 -6 -147 -101 -147 -107 0 -5 -3 -8 -7 -7 -5 2 -25 -8 -47 -21
-38 -24 -39 -24 -73 -6 -47 26 -99 12 -130 -34 -19 -27 -20 -37 -11 -55 13
-25 20 -68 9 -61 -10 5 -77 -43 -74 -54 1 -4 -4 -8 -11 -8 -12 0 -126 -81
-126 -90 0 -2 4 -2 8 1 5 3 9 -1 9 -9 0 -11 -3 -12 -14 -3 -11 9 -21 6 -44
-11 -26 -19 -34 -20 -69 -11 -45 12 -55 8 -217 -89 -54 -32 -118 -69 -143 -82
-25 -13 -59 -34 -76 -46 -17 -13 -34 -23 -39 -23 -4 0 -38 -23 -76 -50 -38
-28 -71 -50 -74 -50 -7 0 -129 -76 -165 -102 -61 -45 -161 -108 -171 -108 -6
0 -23 -9 -37 -20 -77 -59 -315 -212 -431 -276 -21 -12 -94 -56 -162 -97 -68
-41 -144 -85 -169 -97 -25 -12 -61 -35 -80 -50 -19 -14 -71 -46 -115 -70 -43
-23 -85 -49 -93 -56 -7 -8 -17 -14 -22 -14 -4 0 -35 -18 -68 -40 -33 -22 -65
-40 -72 -40 -15 0 -76 35 -105 61 -11 9 -69 43 -130 75 -60 31 -126 66 -145
77 -19 11 -57 32 -85 47 -101 54 -202 111 -288 163 -32 20 -79 44 -103 54 -24
10 -44 24 -44 31 0 7 -4 11 -9 8 -5 -3 -14 1 -21 9 -7 8 -19 15 -26 15 -8 0
-43 20 -79 45 -91 62 -207 132 -294 178 -77 40 -171 98 -206 127 -11 10 -51
34 -90 55 -38 20 -77 43 -85 50 -8 6 -42 27 -75 45 -33 18 -62 36 -65 40 -3 4
-16 11 -30 15 -14 4 -39 18 -56 31 -17 13 -36 24 -42 24 -6 0 -12 3 -14 8 -6
13 -86 65 -173 112 -16 8 -39 23 -50 32 -11 9 -45 36 -75 60 -60 48 -67 66
-32 84 12 6 33 21 45 32 39 36 180 130 243 163 86 43 172 122 200 184 32 69
31 99 -7 132 -16 15 -37 41 -45 58 -19 40 -71 94 -157 162 -40 32 -92 76 -117
99 -25 24 -62 55 -83 71 -21 15 -62 51 -91 78 -29 28 -68 62 -86 75 -18 14
-46 39 -64 55 -17 17 -87 71 -155 120 -68 49 -144 108 -170 130 -43 38 -79 65
-120 90 -9 6 -68 46 -130 90 -63 44 -139 98 -170 119 -31 22 -60 45 -64 53 -4
7 -14 13 -22 13 -13 0 -325 307 -325 320 0 4 21 17 47 29 87 41 188 94 203
107 16 13 108 56 125 58 6 1 33 12 60 24 28 13 91 37 140 54 95 31 143 51 187
74 14 8 32 14 40 14 8 0 36 11 64 24 27 13 67 32 89 41 205 89 336 155 381
191 53 42 51 67 -11 160 -41 61 -101 115 -187 169 -45 28 -135 90 -148 102
-18 17 -172 113 -180 113 -10 0 -200 124 -236 154 -18 14 -36 26 -41 26 -5 0
-27 15 -49 33 -21 18 -68 52 -104 77 -36 24 -67 48 -68 52 -2 4 -8 8 -14 8 -5
0 -33 19 -61 43 -29 24 -68 54 -87 67 -19 14 -39 28 -45 32 -5 5 -48 37 -95
72 -47 35 -119 96 -160 136 -72 69 -77 72 -114 67 -52 -7 -77 -39 -70 -87 17
-124 -2 -368 -40 -499 -16 -59 -24 -161 -12 -179 4 -6 2 -20 -3 -31 -8 -14 -7
-26 2 -44 16 -31 59 -76 72 -77 6 -1 26 -14 45 -30 19 -17 39 -30 44 -30 6 0
19 -9 31 -20 44 -43 128 -116 143 -124 9 -6 28 -20 42 -33 14 -13 40 -31 58
-40 17 -8 32 -19 32 -24 0 -5 7 -9 15 -9 8 0 15 -4 15 -9 0 -4 78 -47 173 -94
198 -98 241 -117 270 -117 33 0 8 -15 -58 -35 -209 -64 -328 -108 -374 -138
-20 -13 -50 -28 -67 -34 -30 -10 -31 -10 -29 18 1 16 9 37 18 47 10 11 17 35
17 58 0 50 -41 98 -113 135 -45 23 -52 30 -52 56 0 32 -36 72 -66 73 -8 0 -24
7 -35 15 -10 8 -27 15 -37 15 -19 0 -86 46 -100 68 -5 8 -38 27 -74 43 -36 16
-100 53 -142 83 -42 29 -96 63 -121 74 -25 12 -70 39 -100 61 -117 83 -286
190 -312 196 -16 4 -28 11 -28 16 0 5 -4 9 -10 9 -10 0 -134 60 -209 101 -24
13 -63 41 -86 62 -41 35 -80 47 -101 29 -5 -5 -35 -15 -67 -22 -32 -7 -60 -17
-63 -22 -3 -4 -20 -8 -38 -8 -18 0 -88 -16 -157 -35 -148 -43 -141 -41 -203
-49 -27 -4 -58 -12 -68 -17 -11 -6 -47 -15 -81 -20 -34 -6 -67 -15 -73 -20 -7
-6 -23 -11 -36 -13 -13 -1 -30 -5 -38 -9 -27 -11 -298 -107 -304 -107 -2 0
-17 -5 -33 -12 -15 -6 -39 -13 -53 -15 -13 -2 -29 -8 -35 -12 -5 -4 -48 -18
-95 -30 -47 -13 -105 -29 -130 -36 -88 -26 -192 -46 -211 -40 -11 4 -31 -2
-48 -14 -16 -12 -48 -29 -71 -39 -38 -16 -43 -23 -66 -87 -14 -39 -26 -79 -26
-90 5 -479 3 -457 30 -498 14 -21 37 -45 51 -52 14 -8 40 -27 58 -42 147 -127
285 -224 490 -345 57 -33 103 -64 103 -69 0 -5 5 -9 11 -9 6 0 36 -20 67 -44
31 -24 116 -76 187 -116 72 -40 148 -88 171 -106 23 -19 44 -34 48 -34 4 0 27
-15 50 -34 23 -19 53 -39 68 -45 50 -19 259 -164 284 -197 52 -67 135 -94 178
-56 12 10 39 24 61 31 56 19 201 79 255 106 25 13 74 32 110 44 36 11 97 32
135 46 39 14 85 31 102 36 18 5 33 13 33 18 0 8 70 41 86 41 6 0 15 5 22 12 7
7 31 17 55 24 36 10 129 46 192 74 11 5 41 16 66 24 25 8 67 28 95 44 27 16
71 42 97 56 40 23 47 31 42 49 -5 17 -4 19 4 7 6 -8 11 -10 12 -5 1 6 4 -6 8
-26 6 -30 3 -78 -13 -221 -2 -15 -9 -34 -15 -42 -16 -19 -9 -312 8 -344 9 -16
9 -28 1 -42 -6 -12 -8 -29 -5 -40 7 -23 188 -210 203 -210 6 0 39 -36 73 -80
43 -55 84 -95 128 -124 36 -24 85 -64 109 -89 23 -25 61 -60 83 -79 136 -109
225 -183 229 -188 3 -3 41 -33 85 -65 44 -33 106 -83 138 -112 49 -45 62 -52
74 -41 13 10 13 14 -3 25 -10 7 -13 13 -7 13 17 0 36 -27 23 -35 -11 -7 -14
-26 -2 -23 4 1 17 -3 30 -10 12 -7 46 -16 75 -19 29 -3 58 -10 65 -16 9 -7 11
-40 6 -136 -7 -162 -9 -185 -18 -199 -4 -7 -5 -16 -2 -20 3 -5 -2 -80 -10
-168 -28 -290 -19 -360 56 -433 71 -70 108 -101 118 -101 4 0 26 -15 48 -34
21 -18 50 -37 64 -41 14 -4 27 -11 30 -15 4 -5 96 -59 238 -140 15 -9 59 -34
97 -57 39 -22 137 -75 219 -117 81 -42 161 -85 177 -96 15 -12 47 -30 71 -41
24 -11 68 -36 98 -55 30 -19 65 -39 78 -44 12 -5 22 -14 22 -20 0 -5 6 -10 13
-10 8 0 27 -12 43 -26 16 -14 43 -32 59 -41 17 -8 37 -21 45 -28 8 -7 58 -36
112 -63 53 -28 146 -85 206 -126 61 -41 145 -91 187 -111 42 -19 95 -48 118
-64 43 -29 233 -123 276 -136 14 -4 48 -23 78 -42 29 -18 59 -33 66 -32 6 1
25 -3 40 -9 42 -18 82 -14 102 8 10 11 22 20 28 20 5 0 102 46 216 102 200 99
514 287 656 391 38 29 85 60 105 70 19 9 53 31 75 47 22 17 54 37 72 46 18 9
42 26 55 39 25 24 96 65 114 65 6 0 18 8 27 18 9 9 33 26 54 37 21 11 61 37
90 57 29 21 54 38 57 38 5 0 147 100 176 124 9 7 22 15 30 19 20 9 136 90 179
124 18 15 45 33 59 40 14 7 53 34 88 58 34 25 67 45 73 45 9 0 58 25 109 55 9
6 65 43 124 83 59 39 110 72 114 72 4 0 22 11 40 25 18 14 36 25 41 25 8 1 46
28 176 128 31 23 60 42 66 42 5 0 11 4 13 10 2 5 42 36 89 67 47 32 137 96
200 143 63 47 121 90 130 95 22 14 95 62 148 97 24 16 73 45 110 65 36 20 105
62 153 94 47 33 89 59 92 59 3 0 29 18 58 40 29 22 59 40 66 40 6 0 12 4 12 9
0 5 24 23 53 40 28 17 79 52 111 78 32 26 74 57 92 68 71 43 190 110 207 117
9 4 17 12 17 18 0 5 5 10 10 10 11 0 143 108 148 122 2 4 8 8 13 8 11 0 96 59
269 185 69 50 142 100 163 110 20 11 37 23 37 27 0 5 7 8 16 8 33 0 103 42
182 109 46 39 87 71 90 71 4 0 31 18 61 40 29 22 59 40 67 40 7 0 30 20 50 44
21 25 49 50 64 56 14 6 68 53 119 105 51 52 97 95 103 95 11 0 103 76 178 146
91 86 145 134 151 134 16 0 230 264 253 312 14 30 35 63 46 73 11 10 20 24 20
30 0 7 8 23 19 36 16 21 32 46 75 124 22 38 109 170 116 175 6 4 38 59 96 161
6 11 21 30 33 43 11 12 21 29 21 37 0 8 9 25 20 39 11 14 20 30 20 37 0 6 9
18 19 25 24 17 114 208 148 313 13 44 35 107 48 140 13 33 30 89 39 125 8 36
30 113 50 172 19 59 38 124 41 145 4 21 13 58 20 83 69 224 79 287 56 345 -15
37 -10 331 7 360 15 27 39 146 46 224 3 35 10 69 15 75 4 6 12 45 15 86 14
139 24 225 36 280 6 30 11 71 11 90 1 19 4 40 9 45 4 6 10 28 13 50 4 22 11
72 17 110 17 112 17 115 25 225 12 196 -46 448 -158 680 -59 123 -84 157 -142
196 -55 36 -70 40 -80 24z m-12205 -3295 c7 -9 29 -23 49 -32 20 -10 58 -30
84 -45 26 -15 53 -28 58 -28 24 0 238 -112 290 -152 20 -16 41 -28 47 -28 6 0
15 -6 19 -13 10 -17 171 -123 200 -131 11 -4 27 -13 33 -21 7 -8 20 -15 30
-15 10 0 40 -20 66 -44 27 -23 67 -49 89 -57 22 -7 55 -23 73 -35 53 -35 232
-196 227 -205 -3 -4 -42 -19 -88 -34 -45 -15 -95 -33 -112 -40 -42 -19 -249
-90 -253 -86 -2 1 -13 -4 -26 -12 -12 -8 -38 -20 -57 -25 -64 -20 -199 -69
-206 -75 -3 -4 -13 -7 -21 -7 -9 0 -52 -18 -96 -39 -45 -21 -108 -48 -141 -59
-33 -11 -128 -54 -211 -96 l-152 -77 -38 22 c-22 12 -77 41 -124 65 -47 23
-100 54 -119 68 -19 14 -39 26 -44 26 -4 0 -36 20 -70 44 -34 24 -75 50 -92
59 -16 8 -40 25 -52 36 -12 12 -26 21 -31 21 -5 0 -26 13 -48 30 -21 16 -43
30 -48 30 -8 0 -81 43 -151 88 -11 6 -27 15 -35 18 -8 3 -22 10 -30 15 -8 5
-44 25 -80 45 -36 19 -87 49 -115 65 -27 15 -59 33 -70 39 -11 6 -33 19 -50
30 -32 21 -37 24 -75 40 -14 6 -34 16 -45 23 -11 7 -43 25 -70 42 -75 45 -127
73 -157 86 -52 21 -37 29 102 59 30 6 100 26 155 43 55 17 103 30 108 29 4 -1
24 5 43 13 20 8 40 13 44 10 4 -3 19 4 32 15 16 12 33 17 47 13 13 -3 27 0 34
9 26 32 506 177 642 194 22 3 74 15 115 26 119 32 191 49 245 58 28 4 53 8 56
9 4 0 12 -6 19 -14z"/>
<path fill="#28a6b8" d="M8755 8402 c-33 -15 -94 -44 -135 -64 -41 -20 -129 -53 -195 -73 -66
-21 -124 -42 -129 -46 -6 -5 -22 -9 -36 -9 -15 0 -30 -3 -33 -6 -11 -11 -118
-53 -151 -59 -17 -3 -40 -10 -51 -15 -65 -28 -174 -64 -204 -67 -19 -2 -46
-10 -60 -17 -14 -8 -53 -20 -86 -27 -33 -7 -64 -15 -70 -19 -5 -4 -32 -13 -60
-19 -27 -7 -57 -15 -65 -18 -8 -3 -24 -7 -35 -8 -11 -1 -54 -12 -95 -24 -41
-13 -86 -25 -100 -28 -14 -2 -32 -7 -40 -11 -8 -3 -24 -7 -35 -8 -79 -11 -245
-49 -330 -74 -138 -43 -308 -83 -444 -106 -80 -13 -236 -47 -346 -76 -188 -47
-297 -73 -355 -84 -14 -3 -38 -9 -55 -14 -16 -5 -52 -12 -80 -16 -96 -13 -470
-101 -560 -131 -78 -27 -123 -38 -278 -68 -70 -14 -151 -32 -180 -41 -55 -16
-105 -29 -147 -38 -32 -7 -56 -23 -48 -31 3 -4 16 -1 28 5 11 6 35 9 53 7 l32
-3 -33 -9 c-29 -7 -49 -21 -41 -30 6 -4 177 14 234 25 28 5 61 12 75 15 14 2
120 24 235 49 116 24 266 56 335 71 69 14 134 30 145 35 11 5 40 11 65 13 43
4 72 10 109 22 10 3 47 9 82 14 35 5 82 14 104 20 22 6 65 14 95 17 30 3 116
22 190 41 74 19 158 38 185 43 28 5 79 16 115 25 63 16 89 21 175 30 58 6 115
20 315 80 30 9 93 25 140 36 47 11 114 27 149 36 35 9 74 17 85 19 22 2 341
82 536 134 122 32 381 113 440 136 52 21 209 74 260 89 119 34 237 79 321 121
l91 46 -5 45 c-3 30 -13 53 -28 69 l-24 23 -60 -27z"/>
</g>
</svg>
