<svg id="Layer_1" data-name="Layer 1" xmlns="http://www.w3.org/2000/svg" width="670.51" height="140.31" viewBox="0 0 670.51 140.31"><style type="text/css">.st0{fill:#FFFFFF;}.st1{fill:#C23669;}</style><path class="st0" d="M414.2,0.1c9.9,0,15,5.1,15.4,15.2l4.9,125h-39.6L390.7,33h-3l-13.8,71.5c-1.3,8.9-6.9,13.4-16.7,13.4h-22.8c-9.6,0-15.2-4.5-16.9-13.4l-14-71.5h-3L297,140.3h-39.7l4.9-125c0.4-10.2,5.6-15.2,15.5-15.2h38c9.5,0,15,4.5,16.7,13.6l10.2,55.7c0.5,3.4,1,6.8,1.3,10.4s0.6,7.1,0.9,10.6h1.8c0.4-3.5,0.8-7,1.1-10.6c0.3-3.5,0.8-7,1.3-10.4l9.5-55.7c1.6-9.1,7.3-13.6,16.9-13.6H414.2z"/><path class="st1" d="M514.9,140.3h43.4L535,101.7c-1.5-2.8-3.3-5.4-5.4-7.8c-1.6-1.9-3.4-3.5-5.4-4.9v-0.7c1.9-1.3,3.7-2.8,5.4-4.4c2.2-2,4-4.3,5.4-6.9l19.7-30.8h-43.2l-17.9,31.2h-5.4c0.2-1.2,0.4-2.5,0.5-3.8c0.6-4.9,0.9-9.8,0.9-14.7v-59h-39.4v140.2h39.4v-26.9c-0.1-4.2-0.5-8.4-1.2-12.5c-0.1-0.4-0.1-0.8-0.2-1.2h5.2L514.9,140.3z"/><path class="st1" d="M570.5,35.1h17.8c8.1,0,12.2-4.1,12.2-12.4V12.5c0-8.3-4.1-12.4-12.2-12.4h-17.8c-8.1,0-12.2,4.1-12.2,12.4v10.2C558.3,30.9,562.4,35.1,570.5,35.1z"/><path class="st1" d="M670.5,69.3v-23h-22.1v-24h-38.6v24.1l-51.3-0.1v94.1h38.3V69.2l13.1,0.1l0.1,45.4c0,8,2.6,14.3,7.9,18.9c5.2,4.5,12.3,6.8,21.2,6.8c2.9,0,6.3-0.2,10.2-0.6s7.7-0.9,11.4-1.6c3.3-0.5,6.5-1.4,9.5-2.6l-4.2-24.6h-9.7c-2.8,0-4.8-0.5-6-1.6s-1.8-2.7-1.8-5V69.3H670.5z"/><path class="st0" d="M111.6,97.8c-1.1-5.6-2.9-9.9-5.6-12.9c-2.3-2.8-5.3-5-8.6-6.4c-2.7-1.2-5.5-1.9-8.4-2.3V75c7.2-0.8,12.8-2.7,16.9-5.8c4-3,7-7,8.6-11.7c1.7-4.9,2.5-10.1,2.5-15.3c0-10.8-2-19.3-6.1-25.3C106.8,10.7,100.5,6.4,92,3.9c-8.6-2.5-19.7-3.8-33.3-3.8c-9.2,0-17.1,0-23.5,0.1S22.7,0.4,17.3,0.7C15,0.8,12.5,0.9,10,1.1l30.4,22.6c11.4-8,27.1-5.2,35.1,6.2s5.2,27.1-6.2,35.1s-27.1,5.2-35.1-6.2c-3-4.2-4.5-9.3-4.5-14.4c0-2.4,0.3-4.8,1-7.1L0,14.5v125.8h42.7V89.7c4,0,8.5,0,13.4,0.1c3.7,0,6.4,0.6,8.1,1.8c1.7,1.2,2.9,3.7,3.7,7.6l9,41.1h45.5L111.6,97.8z"/><circle class="st1" cx="54.9" cy="44.4" r="10.5"/><path class="st0" d="M247.5,35.8c-2.2-9.1-5.9-16.2-10.9-21.4S225.1,5.4,217,3.3C208.9,1.1,199,0,187.2,0c-11.6,0-22,0.2-31.3,0.6s-18.3,0.9-27,1.4v136.3c8.6,0.5,17.6,1,27.1,1.4s19.9,0.6,31.2,0.6c11.7,0,21.6-1.1,29.8-3.3c8.1-2.2,14.7-5.9,19.7-11.1c5-5.2,8.6-12.3,10.9-21.4c2.2-9.1,3.4-20.6,3.4-34.4C250.9,56.3,249.8,44.9,247.5,35.8z M204,94.5c-1.1,5.7-2.9,9.6-5.5,11.7s-6.4,3.2-11.3,3.2c-5.4,0-10.6,0-15.4-0.1V31h15.4c4.9,0,8.6,1.1,11.3,3.2s4.5,6,5.5,11.7c1.1,5.7,1.6,13.8,1.6,24.3S205.1,88.8,204,94.5z"/></svg>
